<svg xmlns="http://www.w3.org/2000/svg" xmlns:xlink="http://www.w3.org/1999/xlink" width="500" zoomAndPan="magnify" viewBox="0 0 375 374.999991" height="500" preserveAspectRatio="xMidYMid meet" version="1.0"><defs><clipPath id="8ce9207fcd"><path d="M 0 0.503906 L 375 0.503906 L 375 374.753906 L 0 374.753906 Z M 0 0.503906 " clip-rule="nonzero"/></clipPath></defs><path fill="#f3bd45" d="M 116.347656 180.054688 L 94.652344 180.054688 C 93.730469 180.054688 93.023438 180.804688 93.023438 181.683594 C 93.023438 182.609375 93.773438 183.3125 94.652344 183.3125 L 117.796875 183.3125 L 117.796875 183.269531 L 117.621094 182.917969 C 117.050781 181.816406 116.652344 181.550781 116.347656 180.054688 M 173.8125 209.070312 L 153.351562 209.070312 C 152.472656 209.070312 151.722656 209.820312 151.722656 210.699219 C 151.722656 211.625 152.472656 212.328125 153.351562 212.328125 L 173.109375 212.328125 C 173.375 211.359375 173.417969 210.609375 173.8125 209.070312 Z M 183.230469 237.953125 L 161.359375 237.953125 C 160.4375 237.953125 159.734375 238.703125 159.734375 239.582031 C 159.734375 240.507812 160.480469 241.210938 161.359375 241.210938 L 182.21875 241.210938 Z M 187.804688 266.925781 L 174.914062 266.925781 C 173.988281 266.925781 173.285156 267.671875 173.285156 268.554688 C 173.285156 269.476562 174.03125 270.183594 174.914062 270.183594 L 189.347656 270.183594 C 188.773438 269.347656 188.246094 268.332031 187.804688 266.925781 Z M 125.367188 151.347656 L 103.628906 151.347656 C 102.707031 151.347656 102 152.097656 102 152.976562 C 102 153.902344 102.75 154.605469 103.628906 154.605469 L 123.519531 154.605469 L 123.871094 154.121094 C 124.179688 152.800781 124.574219 152.402344 125.367188 151.347656 Z M 239.246094 217.789062 C 239.640625 216.421875 244.789062 210.480469 245.757812 209.640625 C 246.503906 209.027344 247.210938 208.410156 247.867188 207.835938 C 248.660156 207.175781 249.363281 206.648438 249.980469 206.207031 C 251.167969 205.414062 252.136719 204.667969 252.972656 203.960938 C 253.457031 203.566406 253.898438 203.171875 254.335938 202.6875 C 256.492188 200.441406 257.636719 198.0625 260.058594 193.703125 C 262.125 189.917969 264.019531 187.671875 263.929688 182.257812 L 263.84375 182.300781 C 263.09375 182.519531 262.433594 182.742188 261.773438 182.917969 L 261.730469 182.917969 L 261.640625 182.960938 L 261.421875 183.003906 C 259.835938 183.445312 258.164062 183.839844 256.273438 184.148438 C 255.832031 184.238281 255.347656 184.324219 254.777344 184.457031 C 251.082031 185.160156 249.144531 185.558594 248.132812 185.644531 C 247.648438 185.339844 247.296875 185.03125 247.078125 184.808594 C 246.988281 184.546875 246.8125 184.238281 246.285156 183.929688 C 245.890625 183.53125 245.40625 183.269531 244.039062 183.046875 L 243.820312 183.003906 C 245.714844 181.332031 245.054688 182.167969 245.449219 180.890625 C 242.414062 176.136719 238.277344 174.902344 237.398438 174.332031 C 234.316406 172.304688 238.101562 169.488281 231.414062 165.347656 C 230.445312 159.667969 231.5 158.039062 227.40625 155.308594 C 225.691406 155.664062 224.769531 156.984375 223.535156 157.90625 C 223.273438 157.996094 222.917969 158.082031 222.523438 158.082031 C 218.476562 157.554688 215.308594 157.863281 210.949219 157.863281 C 207.429688 157.863281 205.363281 157.730469 204.128906 157.777344 C 201.929688 157.90625 202.503906 158.65625 202.371094 161.957031 L 201.578125 162.355469 L 200.347656 162.925781 L 200.347656 163.585938 L 200.214844 172.4375 C 199.730469 172.746094 199.246094 172.921875 198.761719 173.1875 C 198.324219 173.363281 198.015625 173.496094 197.617188 174.023438 C 197.089844 174.550781 196.605469 175.386719 196.210938 176.707031 C 195.859375 177.542969 195.726562 178.25 195.683594 178.867188 C 195.636719 179.21875 195.550781 179.570312 195.507812 179.964844 C 195.636719 180.097656 195.8125 180.230469 195.945312 180.449219 C 196.210938 181.199219 196.652344 181.992188 197.179688 183.003906 C 197.617188 183.929688 198.015625 184.722656 198.277344 185.425781 C 198.804688 187.011719 199.160156 188.550781 199.203125 189.476562 C 199.421875 189.566406 199.730469 189.742188 200.125 189.960938 C 200.390625 190.179688 200.742188 190.445312 201.183594 190.796875 C 203.425781 192.558594 202.105469 192.117188 204 193.617188 C 204.261719 193.878906 204.308594 193.925781 204.351562 193.878906 C 204.746094 194.1875 205.230469 194.671875 205.671875 195.199219 C 205.757812 195.464844 205.847656 195.730469 206.15625 196.125 C 206.726562 196.917969 206.859375 196.875 207.078125 196.917969 C 207.738281 197.753906 208.398438 198.636719 208.925781 199.382812 C 209.367188 200.441406 209.148438 200.484375 213.195312 200.21875 L 213.898438 200.21875 C 214.515625 201.1875 215 201.628906 215.351562 201.980469 C 215.570312 202.246094 215.835938 202.464844 216.054688 202.773438 C 216.1875 203.039062 216.277344 203.433594 216.320312 204.09375 L 216.363281 206.207031 C 216.363281 206.429688 216.363281 206.648438 216.363281 206.867188 C 214.339844 209.6875 213.8125 209.070312 213.371094 213.957031 C 215.835938 214.046875 217.464844 213.691406 218.828125 213.472656 C 219.53125 213.386719 220.234375 213.339844 220.894531 213.296875 C 222.039062 213.253906 223.359375 213.605469 224.679688 214.089844 C 225.296875 214.351562 225.957031 214.707031 226.703125 215.101562 C 228.199219 215.9375 230.621094 217.039062 231.632812 218.183594 C 231.894531 218.492188 232.117188 218.757812 232.292969 219.019531 C 232.511719 219.417969 232.820312 219.945312 233.261719 220.386719 C 233.789062 221.046875 234.492188 221.53125 235.902344 221.75 L 235.945312 221.75 C 236.164062 221.574219 236.339844 221.398438 236.515625 221.179688 C 236.957031 220.695312 237.175781 220.253906 237.351562 219.855469 C 237.660156 219.242188 237.878906 218.667969 238.234375 218.316406 C 238.453125 218.097656 238.761719 217.917969 239.199219 217.789062 Z M 239.246094 217.789062 " fill-opacity="1" fill-rule="evenodd"/><g clip-path="url(#8ce9207fcd)"><path fill="#00843f" d="M 347.226562 217.789062 L 349.074219 218.183594 L 348.457031 221.222656 L 357.347656 223.070312 L 356.863281 225.40625 L 347.972656 223.554688 L 347.359375 226.503906 L 345.511719 226.109375 Z M 342.914062 235.796875 L 343.441406 233.683594 L 350 231.480469 C 350.4375 231.347656 350.878906 231.214844 351.273438 231.085938 C 351.714844 230.953125 352.023438 230.910156 352.242188 230.863281 L 352.242188 230.820312 C 351.496094 230.6875 350.746094 230.554688 350.042969 230.378906 C 349.339844 230.203125 348.589844 229.984375 347.84375 229.808594 L 344.675781 228.972656 L 345.246094 226.8125 L 355.851562 229.542969 L 355.324219 231.65625 L 349.292969 233.726562 C 349.03125 233.816406 348.765625 233.902344 348.503906 233.992188 C 348.238281 234.078125 347.972656 234.121094 347.710938 234.210938 C 347.445312 234.253906 347.226562 234.34375 347.007812 234.386719 C 346.785156 234.429688 346.609375 234.476562 346.476562 234.476562 L 346.476562 234.519531 C 347.269531 234.652344 348.019531 234.828125 348.722656 235.003906 C 349.425781 235.179688 350.175781 235.355469 350.921875 235.574219 L 354.132812 236.414062 L 353.5625 238.570312 Z M 340.140625 243.28125 L 342.519531 236.542969 L 344.234375 237.160156 L 342.648438 241.652344 L 345.027344 242.488281 L 346.476562 238.4375 L 348.195312 239.054688 L 346.742188 243.105469 L 349.515625 244.074219 L 351.097656 239.539062 L 352.859375 240.15625 L 350.4375 246.933594 Z M 335.347656 255.652344 L 336.445312 252.835938 L 341.683594 253.230469 C 341.902344 253.230469 342.167969 253.277344 342.429688 253.277344 C 342.695312 253.320312 342.957031 253.320312 343.222656 253.363281 C 343.484375 253.40625 343.75 253.40625 343.96875 253.453125 C 344.234375 253.496094 344.453125 253.539062 344.628906 253.582031 L 344.675781 253.539062 C 344.5 253.453125 344.320312 253.320312 344.101562 253.1875 C 343.882812 253.054688 343.664062 252.878906 343.441406 252.703125 C 343.222656 252.527344 343.003906 252.394531 342.78125 252.21875 C 342.5625 252.042969 342.386719 251.910156 342.210938 251.777344 L 338.117188 248.519531 L 339.21875 245.703125 L 349.691406 248.960938 L 348.855469 251.03125 C 347.710938 250.632812 346.566406 250.28125 345.421875 249.886719 C 344.277344 249.488281 343.132812 249.09375 341.988281 248.652344 L 340.671875 248.125 L 340.671875 248.167969 C 341.199219 248.5625 341.769531 248.960938 342.34375 249.355469 C 342.914062 249.796875 343.441406 250.148438 343.839844 250.5 L 347.796875 253.714844 L 347.136719 255.433594 L 341.988281 255.125 C 341.328125 255.082031 340.671875 254.992188 339.921875 254.90625 C 339.21875 254.816406 338.601562 254.726562 338.074219 254.640625 L 338.074219 254.683594 C 338.46875 254.816406 338.867188 254.992188 339.304688 255.167969 C 339.746094 255.34375 340.140625 255.519531 340.539062 255.695312 C 340.933594 255.875 341.375 256.050781 341.769531 256.226562 C 342.167969 256.402344 342.519531 256.578125 342.871094 256.710938 L 346.039062 258.207031 L 345.246094 260.277344 Z M 331.386719 263.269531 L 334.597656 256.929688 L 336.226562 257.765625 L 334.070312 261.992188 L 336.3125 263.136719 L 338.25 259.308594 L 339.878906 260.144531 L 337.941406 263.976562 L 340.582031 265.296875 L 342.738281 261.023438 L 344.367188 261.859375 L 341.109375 268.289062 Z M 332.574219 271.679688 L 333.058594 270.84375 C 333.191406 270.578125 333.320312 270.316406 333.410156 270.050781 C 333.496094 269.785156 333.542969 269.523438 333.542969 269.300781 C 333.542969 269.039062 333.453125 268.816406 333.320312 268.640625 C 333.191406 268.421875 332.96875 268.246094 332.707031 268.070312 C 332.222656 267.804688 331.738281 267.761719 331.339844 267.9375 C 330.902344 268.15625 330.550781 268.507812 330.285156 268.992188 L 329.714844 270.007812 Z M 326.941406 271.195312 L 328.832031 267.847656 C 329.140625 267.277344 329.492188 266.835938 329.890625 266.441406 C 330.285156 266.089844 330.679688 265.78125 331.121094 265.605469 C 331.5625 265.425781 332 265.339844 332.441406 265.382812 C 332.882812 265.425781 333.367188 265.558594 333.804688 265.824219 C 334.332031 266.132812 334.773438 266.484375 335.039062 266.925781 C 335.300781 267.363281 335.476562 267.804688 335.523438 268.289062 C 335.566406 268.773438 335.523438 269.300781 335.390625 269.832031 C 335.257812 270.359375 335.039062 270.886719 334.730469 271.414062 L 334.113281 272.515625 L 337.589844 274.496094 L 336.402344 276.566406 Z M 327.644531 279.738281 L 328.171875 278.902344 C 328.347656 278.636719 328.480469 278.371094 328.570312 278.109375 C 328.65625 277.84375 328.703125 277.578125 328.703125 277.359375 C 328.703125 277.09375 328.613281 276.875 328.523438 276.699219 C 328.394531 276.480469 328.21875 276.304688 327.910156 276.125 C 327.425781 275.820312 326.984375 275.773438 326.546875 275.949219 C 326.105469 276.125 325.753906 276.480469 325.445312 276.964844 L 324.828125 277.933594 Z M 322.011719 279.078125 L 324.039062 275.820312 C 324.390625 275.289062 324.742188 274.804688 325.136719 274.453125 C 325.53125 274.101562 325.972656 273.835938 326.414062 273.660156 C 326.851562 273.484375 327.292969 273.441406 327.734375 273.484375 C 328.171875 273.527344 328.65625 273.707031 329.097656 273.96875 C 329.625 274.320312 330.019531 274.671875 330.285156 275.113281 C 330.550781 275.554688 330.679688 275.996094 330.726562 276.523438 C 330.769531 277.007812 330.726562 277.535156 330.550781 278.0625 C 330.375 278.59375 330.152344 279.121094 329.84375 279.648438 L 329.183594 280.707031 L 332.574219 282.820312 L 331.296875 284.84375 Z M 321 289.730469 C 321.527344 290.128906 322.011719 290.390625 322.496094 290.570312 C 322.980469 290.746094 323.421875 290.789062 323.816406 290.789062 C 324.214844 290.789062 324.609375 290.65625 324.960938 290.480469 C 325.3125 290.304688 325.578125 290.039062 325.839844 289.730469 C 326.0625 289.421875 326.238281 289.070312 326.324219 288.675781 C 326.414062 288.277344 326.414062 287.925781 326.324219 287.53125 C 326.238281 287.132812 326.015625 286.738281 325.753906 286.296875 C 325.445312 285.902344 325.050781 285.503906 324.519531 285.109375 C 323.992188 284.710938 323.464844 284.40625 322.980469 284.226562 C 322.496094 284.050781 322.058594 283.964844 321.617188 284.007812 C 321.222656 284.007812 320.824219 284.140625 320.472656 284.316406 C 320.121094 284.492188 319.855469 284.757812 319.59375 285.109375 C 319.328125 285.417969 319.195312 285.769531 319.109375 286.164062 C 319.019531 286.5625 319.019531 286.914062 319.152344 287.308594 C 319.242188 287.707031 319.460938 288.101562 319.769531 288.542969 C 320.078125 288.9375 320.472656 289.335938 321 289.730469 Z M 318.230469 283.921875 C 318.710938 283.304688 319.242188 282.820312 319.855469 282.421875 C 320.472656 282.070312 321.089844 281.804688 321.75 281.71875 C 322.410156 281.628906 323.113281 281.675781 323.859375 281.894531 C 324.609375 282.113281 325.3125 282.46875 326.015625 283.039062 C 326.722656 283.566406 327.25 284.140625 327.644531 284.800781 C 328.042969 285.460938 328.261719 286.121094 328.347656 286.78125 C 328.4375 287.488281 328.394531 288.148438 328.21875 288.851562 C 328.042969 289.554688 327.6875 290.214844 327.207031 290.832031 C 326.722656 291.449219 326.191406 291.933594 325.621094 292.328125 C 325.003906 292.726562 324.390625 292.945312 323.730469 293.035156 C 323.070312 293.121094 322.363281 293.078125 321.617188 292.859375 C 320.914062 292.636719 320.164062 292.285156 319.460938 291.714844 C 318.757812 291.183594 318.230469 290.570312 317.832031 289.953125 C 317.4375 289.292969 317.214844 288.632812 317.085938 287.96875 C 316.996094 287.265625 317.039062 286.605469 317.214844 285.902344 C 317.4375 285.195312 317.789062 284.535156 318.230469 283.921875 Z M 310.703125 293.738281 L 312.199219 291.890625 L 319.242188 297.613281 L 322.011719 294.179688 L 323.464844 295.367188 L 319.152344 300.652344 Z M 305.117188 299.992188 L 309.867188 294.664062 L 311.234375 295.894531 L 308.0625 299.460938 L 309.914062 301.136719 L 312.773438 297.921875 L 314.136719 299.152344 L 311.277344 302.367188 L 313.519531 304.304688 L 316.734375 300.738281 L 318.097656 301.972656 L 313.300781 307.34375 Z M 299.265625 305.671875 L 304.410156 308.488281 C 304.589844 308.578125 304.765625 308.707031 305.027344 308.839844 C 305.25 308.972656 305.511719 309.105469 305.777344 309.28125 C 306.039062 309.414062 306.261719 309.589844 306.523438 309.722656 C 306.789062 309.851562 306.964844 310.03125 307.183594 310.160156 L 307.226562 310.117188 C 307.007812 309.722656 306.746094 309.28125 306.480469 308.707031 C 306.214844 308.179688 305.996094 307.695312 305.777344 307.253906 L 303.3125 301.929688 L 305.117188 300.253906 L 309.78125 310.910156 L 307.886719 312.671875 L 297.503906 307.386719 Z M 307.359375 295.5 L 305.90625 297.128906 L 305.554688 294.574219 L 307.492188 292.550781 Z M 291.960938 312.144531 L 297.371094 307.476562 L 298.558594 308.882812 L 294.953125 311.964844 L 296.578125 313.859375 L 299.835938 311.042969 L 301.023438 312.40625 L 297.769531 315.226562 L 299.703125 317.515625 L 303.355469 314.386719 L 304.542969 315.796875 L 299.085938 320.464844 Z M 291.035156 324.648438 L 291.652344 324.117188 C 292.046875 323.8125 292.355469 323.457031 292.621094 323.105469 C 292.882812 322.710938 293.058594 322.3125 293.148438 321.875 C 293.234375 321.433594 293.191406 320.949219 293.058594 320.421875 C 292.925781 319.890625 292.621094 319.363281 292.136719 318.746094 C 291.429688 317.910156 290.683594 317.425781 289.804688 317.382812 C 288.96875 317.339844 288.132812 317.601562 287.296875 318.308594 L 286.414062 319.011719 Z M 286.414062 316.679688 C 287.074219 316.148438 287.734375 315.753906 288.4375 315.488281 C 289.097656 315.226562 289.804688 315.09375 290.464844 315.136719 C 291.125 315.179688 291.785156 315.355469 292.398438 315.664062 C 293.015625 316.015625 293.585938 316.5 294.160156 317.207031 C 294.777344 318 295.214844 318.746094 295.390625 319.496094 C 295.566406 320.246094 295.613281 320.992188 295.480469 321.695312 C 295.347656 322.402344 295.039062 323.105469 294.597656 323.722656 C 294.160156 324.382812 293.632812 324.957031 292.972656 325.484375 L 290.375 327.597656 L 283.46875 319.054688 Z M 272.949219 326.101562 L 278.847656 322.09375 L 279.859375 323.632812 L 275.941406 326.320312 L 277.351562 328.390625 L 280.914062 325.96875 L 281.925781 327.464844 L 278.363281 329.886719 L 279.992188 332.308594 L 283.949219 329.621094 L 284.964844 331.164062 L 279.023438 335.171875 Z M 266.480469 329.84375 L 268.550781 328.609375 L 273.214844 336.402344 L 277 334.15625 L 277.964844 335.785156 L 272.113281 339.265625 Z M 258.648438 339.527344 L 259.484375 339.089844 C 260.058594 338.824219 260.453125 338.472656 260.671875 338.074219 C 260.9375 337.679688 260.894531 337.195312 260.628906 336.667969 C 260.410156 336.183594 260.058594 335.917969 259.660156 335.785156 C 259.265625 335.65625 258.78125 335.742188 258.210938 336.050781 L 257.152344 336.578125 Z M 254.25 336.007812 L 257.988281 334.15625 C 258.5625 333.894531 259.046875 333.71875 259.574219 333.671875 C 260.058594 333.628906 260.542969 333.671875 260.9375 333.804688 C 261.332031 333.9375 261.730469 334.15625 262.039062 334.464844 C 262.347656 334.773438 262.609375 335.125 262.828125 335.566406 C 263.007812 335.960938 263.136719 336.359375 263.183594 336.710938 C 263.226562 337.0625 263.183594 337.414062 263.136719 337.722656 C 263.050781 338.03125 262.960938 338.339844 262.828125 338.605469 C 262.699219 338.867188 262.523438 339.089844 262.347656 339.308594 L 266.746094 342.082031 L 264.28125 343.316406 L 260.585938 340.628906 L 259.441406 341.203125 L 261.246094 344.8125 L 259.132812 345.871094 Z M 244.480469 339.925781 L 246.679688 339.042969 L 249.101562 345.121094 C 249.453125 345.957031 249.847656 346.53125 250.378906 346.839844 C 250.90625 347.144531 251.519531 347.144531 252.226562 346.882812 C 252.929688 346.617188 253.324219 346.175781 253.457031 345.605469 C 253.589844 345.03125 253.5 344.417969 253.238281 343.710938 L 250.730469 337.414062 L 252.929688 336.535156 L 255.394531 342.65625 C 255.964844 344.0625 256.054688 345.296875 255.613281 346.265625 C 255.171875 347.234375 254.292969 348.027344 252.886719 348.554688 C 251.566406 349.082031 250.378906 349.171875 249.320312 348.773438 C 248.265625 348.378906 247.472656 347.453125 246.855469 345.957031 Z M 237.265625 348.335938 C 237.484375 348.953125 237.75 349.480469 238.054688 349.875 C 238.363281 350.273438 238.671875 350.582031 239.070312 350.800781 C 239.421875 351.019531 239.816406 351.152344 240.167969 351.152344 C 240.566406 351.195312 240.917969 351.152344 241.3125 351.019531 C 241.664062 350.890625 242.015625 350.710938 242.28125 350.449219 C 242.542969 350.183594 242.765625 349.875 242.898438 349.480469 C 243.027344 349.082031 243.074219 348.644531 243.074219 348.160156 C 243.074219 347.675781 242.941406 347.101562 242.722656 346.484375 C 242.5 345.871094 242.238281 345.339844 241.929688 344.902344 C 241.621094 344.503906 241.269531 344.195312 240.917969 343.976562 C 240.566406 343.757812 240.167969 343.625 239.816406 343.625 C 239.421875 343.578125 239.070312 343.667969 238.671875 343.800781 C 238.277344 343.933594 237.96875 344.152344 237.703125 344.417969 C 237.441406 344.679688 237.21875 344.988281 237.089844 345.386719 C 236.957031 345.78125 236.914062 346.222656 236.914062 346.75 C 236.914062 347.144531 237.042969 347.71875 237.265625 348.335938 Z M 238.144531 341.996094 C 238.894531 341.730469 239.597656 341.640625 240.300781 341.640625 C 241.003906 341.6875 241.664062 341.820312 242.28125 342.125 C 242.898438 342.433594 243.425781 342.875 243.910156 343.449219 C 244.394531 344.019531 244.789062 344.722656 245.097656 345.605469 C 245.40625 346.441406 245.492188 347.234375 245.492188 347.984375 C 245.449219 348.730469 245.273438 349.4375 245.007812 350.050781 C 244.699219 350.667969 244.304688 351.195312 243.734375 351.679688 C 243.203125 352.164062 242.542969 352.519531 241.796875 352.78125 C 241.046875 353.046875 240.34375 353.132812 239.640625 353.132812 C 238.9375 353.132812 238.277344 352.957031 237.660156 352.648438 C 237.042969 352.339844 236.515625 351.902344 236.03125 351.328125 C 235.546875 350.757812 235.152344 350.050781 234.84375 349.171875 C 234.535156 348.335938 234.449219 347.542969 234.449219 346.792969 C 234.492188 346.046875 234.667969 345.339844 234.933594 344.722656 C 235.242188 344.109375 235.636719 343.535156 236.207031 343.09375 C 236.78125 342.609375 237.441406 342.257812 238.144531 341.996094 Z M 228.683594 350.273438 L 229.609375 350.050781 C 229.917969 349.964844 230.179688 349.875 230.445312 349.789062 C 230.707031 349.65625 230.882812 349.523438 231.058594 349.347656 C 231.234375 349.171875 231.324219 348.953125 231.414062 348.730469 C 231.457031 348.511719 231.457031 348.203125 231.367188 347.894531 C 231.234375 347.324219 230.929688 346.96875 230.488281 346.839844 C 230.046875 346.660156 229.5625 346.660156 228.992188 346.792969 L 227.847656 347.058594 Z M 225.121094 345.824219 L 228.859375 344.902344 C 229.476562 344.722656 230.046875 344.679688 230.574219 344.679688 C 231.105469 344.679688 231.589844 344.8125 232.027344 344.988281 C 232.46875 345.164062 232.820312 345.472656 233.085938 345.824219 C 233.390625 346.175781 233.566406 346.617188 233.699219 347.144531 C 233.875 347.761719 233.875 348.335938 233.789062 348.820312 C 233.65625 349.304688 233.4375 349.742188 233.128906 350.140625 C 232.820312 350.535156 232.425781 350.84375 231.941406 351.109375 C 231.457031 351.371094 230.929688 351.59375 230.355469 351.726562 L 229.125 352.035156 L 230.09375 355.90625 L 227.761719 356.480469 Z M 212.800781 348.289062 L 219.839844 347.234375 L 220.105469 349.039062 L 215.394531 349.742188 L 215.746094 352.210938 L 220.015625 351.59375 L 220.28125 353.398438 L 216.011719 354.015625 L 216.453125 356.921875 L 221.203125 356.214844 L 221.46875 358.023438 L 214.382812 359.078125 Z M 205.273438 349.257812 L 207.652344 348.996094 L 208.664062 358.019531 L 213.0625 357.539062 L 213.285156 359.386719 L 206.507812 360.136719 Z M 197.925781 349.875 L 200.390625 349.699219 L 205.1875 360.355469 L 202.679688 360.53125 L 201.667969 358.066406 L 197.792969 358.328125 L 197.132812 360.925781 L 194.671875 361.101562 Z M 198.191406 356.570312 L 200.960938 356.390625 L 200.347656 354.984375 C 200.171875 354.542969 199.949219 354.101562 199.820312 353.664062 C 199.640625 353.222656 199.464844 352.78125 199.335938 352.296875 L 199.289062 352.296875 C 199.203125 352.738281 199.070312 353.222656 198.984375 353.664062 C 198.851562 354.148438 198.71875 354.585938 198.628906 355.070312 Z M 194.976562 350.097656 L 195.023438 351.988281 L 191.941406 352.078125 L 192.207031 361.148438 L 189.828125 361.191406 L 189.566406 352.121094 L 186.53125 352.210938 L 186.484375 350.316406 Z M 176.585938 350.007812 L 178.742188 350.050781 L 182.351562 355.953125 C 182.613281 356.347656 182.832031 356.746094 183.007812 357.140625 C 183.230469 357.535156 183.363281 357.800781 183.449219 358.019531 L 183.492188 358.019531 C 183.449219 357.273438 183.449219 356.523438 183.449219 355.777344 C 183.449219 355.027344 183.492188 354.277344 183.492188 353.488281 L 183.582031 350.183594 L 185.78125 350.226562 L 185.472656 361.191406 L 183.316406 361.148438 L 179.972656 355.730469 C 179.839844 355.511719 179.710938 355.246094 179.535156 354.984375 C 179.402344 354.71875 179.269531 354.5 179.136719 354.234375 C 179.003906 354.015625 178.917969 353.792969 178.828125 353.574219 C 178.742188 353.398438 178.652344 353.222656 178.609375 353.089844 L 178.566406 353.089844 C 178.609375 353.882812 178.609375 354.675781 178.609375 355.378906 C 178.609375 356.128906 178.566406 356.875 178.566406 357.625 L 178.476562 360.925781 L 176.234375 360.882812 Z M 168.621094 349.128906 L 175.707031 349.921875 L 175.484375 351.769531 L 170.777344 351.242188 L 170.511719 353.75 L 174.78125 354.234375 L 174.5625 356.039062 L 170.292969 355.554688 L 169.984375 358.460938 L 174.738281 358.988281 L 174.515625 360.839844 L 167.390625 360.046875 Z M 155.507812 347.277344 L 158.5 347.71875 L 159.292969 352.914062 C 159.335938 353.132812 159.378906 353.398438 159.378906 353.664062 C 159.425781 353.925781 159.46875 354.191406 159.46875 354.453125 C 159.511719 354.71875 159.511719 354.984375 159.554688 355.203125 C 159.554688 355.46875 159.601562 355.6875 159.601562 355.90625 L 159.6875 355.90625 C 159.734375 355.730469 159.820312 355.511719 159.910156 355.292969 C 159.996094 355.070312 160.085938 354.808594 160.214844 354.542969 C 160.304688 354.277344 160.4375 354.058594 160.523438 353.792969 C 160.613281 353.574219 160.746094 353.355469 160.832031 353.132812 L 163.078125 348.421875 L 166.070312 348.863281 L 165.234375 359.828125 L 163.03125 359.472656 C 163.164062 358.285156 163.253906 357.054688 163.382812 355.863281 C 163.515625 354.675781 163.648438 353.441406 163.78125 352.210938 L 164 350.800781 L 163.957031 350.800781 C 163.691406 351.417969 163.429688 352.035156 163.164062 352.695312 C 162.902344 353.355469 162.636719 353.925781 162.371094 354.410156 L 160.085938 358.988281 L 158.28125 358.726562 L 157.445312 353.664062 C 157.355469 353.003906 157.269531 352.339844 157.179688 351.636719 C 157.09375 350.933594 157.046875 350.316406 157.046875 349.789062 L 157.003906 349.789062 C 156.960938 350.183594 156.871094 350.625 156.785156 351.066406 C 156.695312 351.503906 156.609375 351.945312 156.519531 352.429688 C 156.433594 352.871094 156.34375 353.308594 156.257812 353.75 C 156.167969 354.191406 156.082031 354.585938 156.035156 354.9375 L 155.289062 358.375 L 153.089844 358.019531 Z M 147.234375 345.164062 L 154.144531 346.925781 L 153.703125 348.730469 L 149.082031 347.585938 L 148.46875 350.007812 L 152.648438 351.066406 L 152.207031 352.824219 L 148.027344 351.769531 L 147.324219 354.632812 L 151.988281 355.820312 L 151.546875 357.625 L 144.59375 355.863281 Z M 136.542969 342.125 L 138.609375 342.742188 L 140.589844 349.347656 C 140.722656 349.789062 140.855469 350.226562 140.945312 350.667969 C 141.03125 351.109375 141.121094 351.417969 141.121094 351.636719 L 141.164062 351.636719 C 141.296875 350.890625 141.472656 350.183594 141.691406 349.4375 C 141.910156 348.730469 142.132812 347.984375 142.351562 347.277344 L 143.277344 344.109375 L 145.386719 344.722656 L 142.261719 355.246094 L 140.195312 354.632812 L 138.347656 348.511719 C 138.257812 348.246094 138.214844 347.984375 138.128906 347.675781 C 138.039062 347.410156 137.996094 347.144531 137.953125 346.882812 C 137.90625 346.617188 137.863281 346.398438 137.820312 346.175781 C 137.773438 345.957031 137.773438 345.78125 137.730469 345.648438 L 137.6875 345.648438 C 137.511719 346.441406 137.335938 347.191406 137.117188 347.894531 C 136.894531 348.597656 136.71875 349.304688 136.5 350.050781 L 135.574219 353.222656 L 133.417969 352.605469 Z M 128.269531 344.636719 L 129.152344 344.945312 C 129.722656 345.164062 130.25 345.207031 130.734375 345.078125 C 131.175781 344.945312 131.527344 344.636719 131.703125 344.0625 C 131.878906 343.578125 131.835938 343.140625 131.660156 342.742188 C 131.4375 342.390625 131.042969 342.082031 130.472656 341.90625 L 129.328125 341.511719 Z M 127.65625 339.042969 L 131.570312 340.410156 C 132.144531 340.628906 132.628906 340.851562 133.023438 341.203125 C 133.417969 341.511719 133.683594 341.863281 133.902344 342.257812 C 134.078125 342.65625 134.210938 343.050781 134.210938 343.492188 C 134.210938 343.933594 134.167969 344.371094 133.992188 344.8125 C 133.859375 345.207031 133.640625 345.5625 133.417969 345.871094 C 133.199219 346.132812 132.933594 346.355469 132.671875 346.53125 C 132.40625 346.707031 132.097656 346.839844 131.835938 346.882812 C 131.527344 346.96875 131.261719 347.015625 131 347.058594 L 132.097656 352.121094 L 129.503906 351.242188 L 128.796875 346.75 L 127.609375 346.355469 L 126.289062 350.183594 L 124.046875 349.4375 Z M 120.527344 335.832031 L 127.039062 338.78125 L 126.289062 340.453125 L 121.976562 338.472656 L 120.964844 340.761719 L 124.882812 342.523438 L 124.132812 344.195312 L 120.21875 342.433594 L 118.984375 345.121094 L 123.34375 347.101562 L 122.59375 348.773438 L 116.039062 345.824219 Z M 112.695312 332.042969 L 111.8125 337.855469 C 111.769531 338.03125 111.726562 338.296875 111.683594 338.558594 C 111.636719 338.824219 111.59375 339.089844 111.550781 339.398438 C 111.507812 339.660156 111.460938 339.96875 111.375 340.234375 C 111.328125 340.496094 111.242188 340.761719 111.199219 340.980469 L 111.242188 341.027344 C 111.507812 340.675781 111.859375 340.277344 112.296875 339.835938 C 112.738281 339.398438 113.089844 339 113.441406 338.648438 L 117.578125 334.464844 L 119.777344 335.566406 L 111.375 343.625 L 109.042969 342.480469 L 110.40625 330.898438 Z M 101.914062 326.054688 L 103.980469 327.246094 L 100.769531 332.96875 C 100.328125 333.761719 100.152344 334.464844 100.242188 335.039062 C 100.328125 335.609375 100.726562 336.09375 101.386719 336.492188 C 102.046875 336.84375 102.617188 336.929688 103.144531 336.667969 C 103.671875 336.402344 104.113281 335.960938 104.507812 335.300781 L 107.855469 329.402344 L 109.921875 330.589844 L 106.664062 336.316406 C 105.917969 337.636719 105.039062 338.472656 103.980469 338.738281 C 102.96875 339 101.78125 338.78125 100.460938 338.078125 C 99.230469 337.371094 98.394531 336.492188 98.085938 335.433594 C 97.734375 334.378906 97.953125 333.144531 98.746094 331.78125 Z M 91.222656 325.441406 C 90.867188 325.96875 90.605469 326.496094 90.472656 326.980469 C 90.339844 327.464844 90.296875 327.90625 90.339844 328.34375 C 90.386719 328.742188 90.515625 329.136719 90.691406 329.445312 C 90.914062 329.753906 91.175781 330.0625 91.484375 330.28125 C 91.792969 330.503906 92.144531 330.636719 92.539062 330.722656 C 92.9375 330.8125 93.289062 330.765625 93.683594 330.636719 C 94.082031 330.503906 94.476562 330.28125 94.871094 329.976562 C 95.269531 329.667969 95.664062 329.226562 96.015625 328.699219 C 96.414062 328.125 96.632812 327.597656 96.808594 327.113281 C 96.941406 326.628906 96.984375 326.1875 96.941406 325.746094 C 96.898438 325.351562 96.765625 324.957031 96.546875 324.648438 C 96.324219 324.339844 96.0625 324.03125 95.710938 323.8125 C 95.355469 323.589844 95.003906 323.457031 94.652344 323.371094 C 94.257812 323.328125 93.90625 323.328125 93.507812 323.457031 C 93.113281 323.589844 92.71875 323.8125 92.320312 324.117188 C 91.96875 324.472656 91.574219 324.910156 91.222656 325.441406 Z M 96.808594 322.359375 C 97.46875 322.796875 97.996094 323.28125 98.394531 323.898438 C 98.789062 324.472656 99.054688 325.085938 99.183594 325.746094 C 99.316406 326.410156 99.273438 327.113281 99.097656 327.859375 C 98.921875 328.609375 98.570312 329.359375 98.085938 330.105469 C 97.601562 330.855469 97.027344 331.425781 96.414062 331.824219 C 95.796875 332.265625 95.136719 332.527344 94.476562 332.660156 C 93.816406 332.792969 93.113281 332.792969 92.410156 332.617188 C 91.703125 332.441406 91.042969 332.175781 90.386719 331.734375 C 89.726562 331.296875 89.195312 330.8125 88.800781 330.238281 C 88.40625 329.667969 88.140625 329.050781 88.007812 328.390625 C 87.875 327.730469 87.921875 327.023438 88.050781 326.277344 C 88.230469 325.527344 88.535156 324.777344 89.066406 324.03125 C 89.546875 323.28125 90.121094 322.710938 90.738281 322.3125 C 91.351562 321.875 92.011719 321.609375 92.671875 321.476562 C 93.332031 321.34375 94.035156 321.34375 94.742188 321.519531 C 95.53125 321.652344 96.191406 321.917969 96.808594 322.359375 Z M 88.976562 316.765625 C 89.503906 317.207031 89.945312 317.601562 90.296875 318.042969 C 90.648438 318.484375 90.914062 318.878906 91.132812 319.320312 L 89.726562 320.246094 C 89.546875 319.847656 89.285156 319.453125 89.019531 319.097656 C 88.757812 318.746094 88.449219 318.4375 88.140625 318.175781 C 87.789062 317.867188 87.394531 317.644531 86.953125 317.515625 C 86.511719 317.382812 86.074219 317.339844 85.632812 317.382812 C 85.191406 317.425781 84.753906 317.601562 84.269531 317.867188 C 83.828125 318.128906 83.34375 318.570312 82.90625 319.097656 C 82.113281 320.066406 81.714844 321.035156 81.714844 321.917969 C 81.714844 322.796875 82.15625 323.546875 82.949219 324.207031 C 83.433594 324.601562 83.785156 324.824219 84.09375 324.910156 L 85.675781 322.929688 L 84.269531 321.785156 L 85.367188 320.421875 L 88.535156 322.972656 L 85.058594 327.289062 C 84.578125 327.15625 84.09375 326.9375 83.519531 326.671875 C 82.992188 326.410156 82.375 326.011719 81.804688 325.527344 C 81.1875 325 80.660156 324.425781 80.265625 323.8125 C 79.867188 323.195312 79.605469 322.535156 79.515625 321.828125 C 79.429688 321.125 79.472656 320.421875 79.691406 319.671875 C 79.914062 318.921875 80.308594 318.21875 80.878906 317.515625 C 81.453125 316.808594 82.066406 316.238281 82.773438 315.886719 C 83.433594 315.53125 84.136719 315.3125 84.839844 315.269531 C 85.542969 315.226562 86.25 315.3125 86.953125 315.578125 C 87.65625 315.886719 88.316406 316.28125 88.976562 316.765625 Z M 76.085938 312.933594 L 76.789062 313.550781 C 77.273438 313.949219 77.710938 314.210938 78.195312 314.300781 C 78.679688 314.386719 79.078125 314.167969 79.472656 313.726562 C 79.824219 313.332031 79.957031 312.933594 79.914062 312.496094 C 79.867188 312.054688 79.605469 311.660156 79.164062 311.261719 L 78.285156 310.46875 Z M 77.667969 307.519531 L 80.792969 310.292969 C 81.230469 310.691406 81.585938 311.128906 81.847656 311.570312 C 82.066406 312.011719 82.199219 312.449219 82.246094 312.890625 C 82.289062 313.332031 82.199219 313.773438 82.066406 314.167969 C 81.890625 314.5625 81.671875 314.960938 81.363281 315.3125 C 81.054688 315.664062 80.75 315.886719 80.441406 316.0625 C 80.132812 316.238281 79.78125 316.324219 79.472656 316.414062 C 79.164062 316.457031 78.855469 316.457031 78.546875 316.414062 C 78.238281 316.371094 77.976562 316.324219 77.757812 316.238281 L 76.832031 321.34375 L 74.765625 319.539062 L 75.863281 315.136719 L 74.894531 314.300781 L 72.210938 317.339844 L 70.453125 315.753906 Z M 71.597656 301.707031 L 76.742188 306.683594 L 75.46875 308.003906 L 72.035156 304.703125 L 70.277344 306.507812 L 73.355469 309.5 L 72.078125 310.820312 L 69 307.828125 L 66.976562 309.941406 L 70.453125 313.289062 L 69.175781 314.609375 L 64.027344 309.632812 Z M 71.023438 301.046875 L 69.660156 302.367188 L 67.503906 300.121094 L 60.992188 306.417969 L 59.320312 304.703125 L 65.832031 298.40625 L 63.71875 296.25 L 65.082031 294.925781 Z M 59.1875 287.488281 L 60.550781 289.203125 L 58.394531 295.765625 C 58.261719 296.203125 58.085938 296.644531 57.910156 297.039062 C 57.734375 297.4375 57.601562 297.746094 57.515625 297.964844 L 57.515625 298.007812 C 58.042969 297.480469 58.613281 296.996094 59.230469 296.511719 C 59.804688 296.027344 60.417969 295.585938 60.992188 295.101562 L 63.542969 293.035156 L 64.90625 294.75 L 56.328125 301.574219 L 54.964844 299.859375 L 56.941406 293.78125 C 57.03125 293.519531 57.117188 293.253906 57.25 292.988281 C 57.339844 292.726562 57.472656 292.460938 57.558594 292.242188 C 57.648438 291.976562 57.734375 291.757812 57.824219 291.582031 C 57.910156 291.40625 58 291.230469 58.042969 291.097656 L 58.042969 291.054688 C 57.472656 291.582031 56.855469 292.109375 56.28125 292.550781 C 55.710938 293.035156 55.140625 293.472656 54.523438 293.957031 L 51.925781 296.027344 L 50.519531 294.265625 Z M 58.042969 285.988281 L 49.199219 292.503906 L 47.789062 290.570312 L 56.636719 284.050781 Z M 52.191406 275.730469 L 51.132812 274.144531 L 53.6875 274.101562 L 55.09375 276.214844 Z M 49.199219 273.308594 L 53.160156 279.253906 L 51.617188 280.265625 L 48.980469 276.304688 L 46.910156 277.710938 L 49.285156 281.277344 L 47.789062 282.289062 L 45.414062 278.722656 L 42.949219 280.355469 L 45.632812 284.359375 L 44.09375 285.371094 L 40.089844 279.386719 Z M 48.890625 272.605469 L 47.261719 273.574219 L 45.679688 270.929688 L 37.933594 275.640625 L 36.703125 273.617188 L 44.492188 268.90625 L 42.90625 266.308594 L 44.535156 265.339844 Z M 44.226562 264.503906 L 34.632812 269.785156 L 33.488281 267.71875 L 43.082031 262.433594 Z M 35.515625 258.382812 L 35.910156 259.21875 C 36.175781 259.792969 36.527344 260.1875 36.921875 260.453125 C 37.316406 260.714844 37.800781 260.714844 38.328125 260.453125 C 38.8125 260.230469 39.078125 259.925781 39.210938 259.484375 C 39.34375 259.085938 39.253906 258.601562 38.988281 258.03125 L 38.460938 256.929688 Z M 39.035156 254.023438 L 40.839844 257.765625 C 41.101562 258.339844 41.277344 258.867188 41.320312 259.351562 C 41.367188 259.835938 41.320312 260.320312 41.191406 260.714844 C 41.058594 261.113281 40.839844 261.507812 40.53125 261.816406 C 40.222656 262.125 39.871094 262.390625 39.429688 262.609375 C 39.035156 262.785156 38.636719 262.917969 38.285156 262.960938 C 37.933594 263.007812 37.582031 262.960938 37.273438 262.875 C 36.964844 262.785156 36.65625 262.699219 36.394531 262.523438 C 36.128906 262.390625 35.910156 262.214844 35.691406 262.039062 L 32.875 266.441406 L 31.6875 263.976562 L 34.414062 260.320312 L 33.84375 259.175781 L 30.191406 260.9375 L 29.175781 258.824219 Z M 30.453125 247.464844 C 29.835938 247.683594 29.355469 247.992188 28.957031 248.300781 C 28.5625 248.609375 28.253906 248.960938 28.078125 249.3125 C 27.859375 249.664062 27.769531 250.0625 27.769531 250.457031 C 27.769531 250.855469 27.8125 251.207031 27.945312 251.601562 C 28.078125 251.953125 28.296875 252.308594 28.5625 252.570312 C 28.824219 252.835938 29.175781 253.054688 29.574219 253.1875 C 29.96875 253.320312 30.410156 253.363281 30.894531 253.320312 C 31.378906 253.277344 31.949219 253.144531 32.566406 252.921875 C 33.183594 252.660156 33.710938 252.394531 34.105469 252.085938 C 34.5 251.777344 34.808594 251.425781 34.984375 251.074219 C 35.207031 250.722656 35.292969 250.324219 35.292969 249.929688 C 35.292969 249.53125 35.25 249.179688 35.074219 248.785156 C 34.941406 248.386719 34.722656 248.078125 34.457031 247.816406 C 34.195312 247.550781 33.84375 247.375 33.445312 247.242188 C 33.050781 247.066406 32.609375 247.023438 32.125 247.066406 C 31.597656 247.113281 31.027344 247.242188 30.453125 247.464844 Z M 36.789062 248.167969 C 37.054688 248.871094 37.230469 249.621094 37.230469 250.324219 C 37.230469 251.03125 37.097656 251.691406 36.832031 252.308594 C 36.570312 252.921875 36.128906 253.496094 35.558594 253.980469 C 34.984375 254.507812 34.28125 254.90625 33.445312 255.257812 C 32.609375 255.566406 31.816406 255.742188 31.070312 255.742188 C 30.320312 255.742188 29.617188 255.609375 29 255.300781 C 28.386719 255.035156 27.8125 254.640625 27.328125 254.113281 C 26.84375 253.582031 26.449219 252.96875 26.183594 252.21875 C 25.921875 251.515625 25.746094 250.765625 25.746094 250.0625 C 25.746094 249.355469 25.878906 248.695312 26.140625 248.078125 C 26.40625 247.464844 26.84375 246.890625 27.375 246.40625 C 27.945312 245.878906 28.648438 245.480469 29.484375 245.175781 C 30.320312 244.867188 31.113281 244.691406 31.863281 244.691406 C 32.609375 244.691406 33.3125 244.820312 33.929688 245.128906 C 34.546875 245.394531 35.117188 245.789062 35.601562 246.320312 C 36.128906 246.804688 36.527344 247.417969 36.789062 248.167969 Z M 34.679688 243.28125 L 32.875 243.851562 L 31.949219 240.902344 L 23.324219 243.765625 L 22.578125 241.519531 L 31.203125 238.65625 L 30.234375 235.796875 L 32.039062 235.222656 Z M 29.355469 225.625 L 30.011719 227.914062 L 23.722656 229.71875 C 22.839844 229.984375 22.226562 230.335938 21.875 230.820312 C 21.519531 231.304688 21.433594 231.921875 21.652344 232.625 C 21.875 233.332031 22.226562 233.816406 22.796875 233.992188 C 23.324219 234.167969 23.984375 234.167969 24.6875 233.992188 L 31.203125 232.140625 L 31.863281 234.429688 L 25.523438 236.234375 C 24.074219 236.632812 22.839844 236.589844 21.917969 236.058594 C 20.992188 235.53125 20.332031 234.5625 19.894531 233.109375 C 19.496094 231.746094 19.542969 230.511719 20.070312 229.542969 C 20.554688 228.53125 21.566406 227.828125 23.105469 227.386719 Z M 28.035156 218.933594 L 28.515625 221.355469 L 18.527344 227.386719 L 18.046875 224.921875 L 20.378906 223.601562 L 19.585938 219.769531 L 16.945312 219.417969 L 16.503906 216.953125 Z M 21.433594 219.988281 L 21.960938 222.71875 L 23.28125 221.96875 C 23.675781 221.707031 24.117188 221.484375 24.558594 221.265625 C 24.996094 221.046875 25.394531 220.824219 25.832031 220.605469 L 25.832031 220.5625 C 25.394531 220.519531 24.910156 220.472656 24.425781 220.386719 C 23.941406 220.339844 23.457031 220.253906 22.972656 220.164062 Z M 361.21875 165.394531 L 359.019531 165.746094 L 358.445312 162.132812 L 347.886719 163.851562 L 347.445312 161.078125 L 358.007812 159.359375 L 357.433594 155.839844 L 359.636719 155.484375 Z M 356.378906 142.542969 L 357.039062 145.007812 L 351.625 151.039062 C 351.273438 151.433594 350.878906 151.832031 350.527344 152.183594 C 350.175781 152.535156 349.867188 152.800781 349.644531 152.976562 L 349.644531 153.019531 C 350.484375 152.710938 351.320312 152.449219 352.15625 152.226562 C 352.992188 152.007812 353.871094 151.789062 354.75 151.523438 L 358.492188 150.511719 L 359.152344 153.019531 L 346.699219 156.367188 L 346.039062 153.902344 L 351.011719 148.265625 C 351.230469 148.046875 351.449219 147.78125 351.714844 147.5625 C 351.933594 147.339844 352.199219 147.078125 352.417969 146.855469 C 352.636719 146.636719 352.859375 146.460938 353.035156 146.285156 C 353.210938 146.109375 353.386719 145.976562 353.519531 145.886719 L 353.519531 145.84375 C 352.636719 146.152344 351.757812 146.417969 350.921875 146.636719 C 350.085938 146.855469 349.25 147.121094 348.371094 147.339844 L 344.585938 148.351562 L 343.925781 145.800781 Z M 353.167969 132.238281 L 355.761719 140.207031 L 353.695312 140.867188 L 351.980469 135.539062 L 349.164062 136.464844 L 350.703125 141.265625 L 348.679688 141.925781 L 347.136719 137.125 L 343.839844 138.183594 L 345.597656 143.554688 L 343.53125 144.214844 L 340.933594 136.15625 Z M 346.785156 116.476562 L 348.195312 119.734375 L 343.574219 123.785156 C 343.355469 123.960938 343.132812 124.136719 342.914062 124.355469 C 342.695312 124.578125 342.429688 124.753906 342.210938 124.929688 C 341.945312 125.105469 341.726562 125.324219 341.507812 125.503906 C 341.285156 125.679688 341.066406 125.855469 340.847656 125.988281 L 340.890625 126.074219 C 341.109375 126.03125 341.375 125.988281 341.636719 125.898438 C 341.945312 125.855469 342.253906 125.808594 342.5625 125.722656 C 342.871094 125.679688 343.179688 125.632812 343.484375 125.589844 C 343.792969 125.546875 344.058594 125.503906 344.320312 125.457031 L 350.4375 124.753906 L 351.847656 128.011719 L 340.40625 134.042969 L 339.351562 131.621094 C 340.625 130.960938 341.902344 130.34375 343.179688 129.683594 C 344.453125 129.023438 345.730469 128.40625 347.050781 127.835938 L 348.589844 127.132812 L 348.546875 127.085938 C 347.796875 127.21875 347.007812 127.351562 346.171875 127.484375 C 345.335938 127.617188 344.585938 127.703125 343.96875 127.792969 L 337.984375 128.40625 L 337.105469 126.425781 L 341.636719 122.421875 C 342.210938 121.890625 342.871094 121.40625 343.53125 120.878906 C 344.191406 120.351562 344.804688 119.910156 345.289062 119.558594 L 345.246094 119.515625 C 344.804688 119.691406 344.320312 119.910156 343.839844 120.128906 C 343.355469 120.351562 342.824219 120.527344 342.34375 120.703125 C 341.859375 120.878906 341.375 121.097656 340.890625 121.273438 C 340.40625 121.453125 339.964844 121.628906 339.570312 121.757812 L 335.699219 123.167969 L 334.640625 120.789062 Z M 337.105469 110.53125 L 337.632812 111.542969 C 337.808594 111.851562 337.984375 112.160156 338.160156 112.425781 C 338.339844 112.691406 338.601562 112.910156 338.820312 113.042969 C 339.085938 113.175781 339.351562 113.261719 339.613281 113.261719 C 339.921875 113.261719 340.230469 113.175781 340.539062 113.042969 C 341.152344 112.734375 341.460938 112.335938 341.550781 111.765625 C 341.636719 111.238281 341.507812 110.621094 341.199219 110.003906 L 340.582031 108.769531 Z M 341.285156 105.335938 L 343.308594 109.386719 C 343.664062 110.046875 343.882812 110.707031 343.96875 111.324219 C 344.058594 111.941406 344.058594 112.511719 343.96875 113.085938 C 343.839844 113.613281 343.617188 114.097656 343.308594 114.539062 C 342.957031 114.980469 342.519531 115.332031 341.945312 115.59375 C 341.285156 115.902344 340.671875 116.078125 340.054688 116.078125 C 339.4375 116.078125 338.910156 115.949219 338.382812 115.683594 C 337.855469 115.417969 337.371094 115.023438 336.972656 114.539062 C 336.535156 114.054688 336.183594 113.480469 335.875 112.867188 L 335.214844 111.542969 L 330.988281 113.613281 L 329.757812 111.105469 Z M 329.054688 97.808594 C 328.394531 98.203125 327.910156 98.644531 327.511719 99.085938 C 327.117188 99.523438 326.851562 100.007812 326.722656 100.449219 C 326.589844 100.933594 326.5 101.375 326.589844 101.8125 C 326.632812 102.253906 326.808594 102.695312 327.074219 103.089844 C 327.335938 103.488281 327.644531 103.796875 327.996094 104.058594 C 328.394531 104.324219 328.789062 104.457031 329.273438 104.542969 C 329.757812 104.589844 330.285156 104.542969 330.859375 104.410156 C 331.429688 104.28125 332.046875 103.972656 332.707031 103.574219 C 333.367188 103.179688 333.894531 102.738281 334.289062 102.253906 C 334.6875 101.8125 334.949219 101.328125 335.125 100.890625 C 335.257812 100.40625 335.300781 99.964844 335.257812 99.523438 C 335.167969 99.085938 335.039062 98.644531 334.773438 98.246094 C 334.507812 97.851562 334.203125 97.5 333.851562 97.28125 C 333.453125 97.015625 333.058594 96.882812 332.574219 96.839844 C 332.089844 96.796875 331.5625 96.839844 330.988281 96.972656 C 330.328125 97.148438 329.714844 97.410156 329.054688 97.808594 Z M 336.578125 97.234375 C 337.0625 98.027344 337.371094 98.820312 337.546875 99.613281 C 337.722656 100.449219 337.679688 101.242188 337.5 101.992188 C 337.324219 102.78125 336.972656 103.488281 336.402344 104.234375 C 335.875 104.941406 335.125 105.601562 334.246094 106.128906 C 333.367188 106.65625 332.484375 107.011719 331.605469 107.1875 C 330.726562 107.316406 329.890625 107.316406 329.097656 107.140625 C 328.304688 106.964844 327.558594 106.613281 326.898438 106.085938 C 326.238281 105.601562 325.664062 104.941406 325.179688 104.148438 C 324.695312 103.355469 324.390625 102.5625 324.214844 101.769531 C 324.039062 100.933594 324.082031 100.140625 324.257812 99.394531 C 324.433594 98.601562 324.785156 97.894531 325.355469 97.148438 C 325.886719 96.441406 326.589844 95.78125 327.511719 95.253906 C 328.394531 94.726562 329.273438 94.375 330.152344 94.195312 C 331.035156 94.019531 331.871094 94.066406 332.660156 94.242188 C 333.453125 94.417969 334.203125 94.769531 334.863281 95.253906 C 335.523438 95.78125 336.09375 96.441406 336.578125 97.234375 Z M 327.382812 84.246094 L 329.097656 86.492188 L 320.605469 92.964844 L 323.773438 97.101562 L 322.011719 98.46875 L 317.128906 92.128906 Z M 320.691406 75.925781 L 326.105469 82.351562 L 324.433594 83.761719 L 320.824219 79.492188 L 318.582031 81.382812 L 321.835938 85.257812 L 320.207031 86.625 L 316.953125 82.75 L 314.3125 84.996094 L 317.964844 89.308594 L 316.292969 90.71875 L 310.878906 84.246094 Z M 313.257812 67.734375 L 309.867188 73.8125 C 309.738281 74.03125 309.605469 74.25 309.472656 74.515625 C 309.296875 74.78125 309.164062 75.089844 308.988281 75.351562 C 308.8125 75.660156 308.636719 75.925781 308.460938 76.234375 C 308.285156 76.542969 308.109375 76.761719 307.976562 76.980469 L 308.019531 77.027344 C 308.460938 76.761719 309.03125 76.453125 309.648438 76.144531 C 310.308594 75.835938 310.878906 75.574219 311.410156 75.308594 L 317.699219 72.445312 L 319.679688 74.558594 L 307.097656 79.976562 L 305.027344 77.730469 L 311.320312 65.535156 Z M 303.882812 58.839844 L 310.132812 64.433594 L 308.679688 66.0625 L 304.5 62.320312 L 302.519531 64.519531 L 306.304688 67.867188 L 304.851562 69.453125 L 301.066406 66.105469 L 298.78125 68.703125 L 303.003906 72.445312 L 301.550781 74.074219 L 295.257812 68.441406 Z M 288.921875 60.292969 L 289.671875 60.910156 C 290.113281 61.261719 290.59375 61.570312 291.125 61.792969 C 291.652344 62.011719 292.136719 62.144531 292.707031 62.101562 C 293.234375 62.101562 293.808594 61.921875 294.335938 61.617188 C 294.90625 61.308594 295.4375 60.824219 296.007812 60.117188 C 296.800781 59.105469 297.152344 58.09375 297.019531 57.125 C 296.886719 56.113281 296.316406 55.230469 295.347656 54.4375 L 294.292969 53.601562 Z M 296.976562 53.03125 C 297.769531 53.644531 298.382812 54.304688 298.867188 55.054688 C 299.351562 55.757812 299.660156 56.507812 299.792969 57.300781 C 299.925781 58.09375 299.878906 58.839844 299.617188 59.679688 C 299.394531 60.472656 298.957031 61.261719 298.296875 62.054688 C 297.546875 62.980469 296.800781 63.640625 295.964844 64.035156 C 295.128906 64.433594 294.292969 64.652344 293.457031 64.699219 C 292.621094 64.699219 291.738281 64.566406 290.902344 64.214844 C 290.066406 63.859375 289.230469 63.375 288.484375 62.761719 L 285.402344 60.292969 L 293.5 50.257812 Z M 277.261719 39.117188 L 279.375 40.527344 L 279.332031 48.671875 C 279.332031 49.242188 279.285156 49.773438 279.285156 50.257812 C 279.242188 50.785156 279.199219 51.136719 279.15625 51.402344 L 279.199219 51.445312 C 279.640625 50.652344 280.078125 49.902344 280.5625 49.15625 C 281.046875 48.40625 281.53125 47.65625 282.058594 46.910156 L 284.214844 43.695312 L 286.371094 45.148438 L 279.242188 55.890625 L 277.128906 54.484375 L 277.128906 46.953125 C 277.128906 46.644531 277.128906 46.292969 277.175781 45.941406 C 277.175781 45.589844 277.21875 45.28125 277.261719 44.972656 C 277.308594 44.664062 277.308594 44.398438 277.351562 44.136719 C 277.394531 43.871094 277.394531 43.695312 277.4375 43.519531 L 277.394531 43.476562 C 276.910156 44.3125 276.46875 45.058594 275.988281 45.808594 C 275.503906 46.558594 275.019531 47.261719 274.535156 48.011719 L 272.378906 51.269531 L 270.179688 49.816406 Z M 262.875 38.765625 C 262.523438 39.425781 262.300781 40.085938 262.167969 40.65625 C 262.082031 41.230469 262.082031 41.757812 262.167969 42.242188 C 262.257812 42.726562 262.476562 43.125 262.742188 43.519531 C 263.007812 43.871094 263.359375 44.179688 263.796875 44.398438 C 264.195312 44.621094 264.632812 44.753906 265.074219 44.753906 C 265.515625 44.796875 265.953125 44.707031 266.4375 44.53125 C 266.878906 44.355469 267.316406 44.046875 267.714844 43.609375 C 268.152344 43.167969 268.507812 42.640625 268.902344 41.976562 C 269.253906 41.273438 269.519531 40.613281 269.605469 40.042969 C 269.695312 39.46875 269.695312 38.894531 269.605469 38.410156 C 269.519531 37.925781 269.296875 37.53125 269.035156 37.179688 C 268.769531 36.828125 268.375 36.519531 267.976562 36.296875 C 267.539062 36.078125 267.097656 35.945312 266.65625 35.945312 C 266.21875 35.902344 265.777344 35.992188 265.339844 36.210938 C 264.898438 36.386719 264.457031 36.695312 264.019531 37.136719 C 263.621094 37.574219 263.269531 38.105469 262.875 38.765625 Z M 269.078125 34.492188 C 269.871094 34.933594 270.574219 35.460938 271.101562 36.078125 C 271.628906 36.695312 272.027344 37.398438 272.246094 38.148438 C 272.464844 38.894531 272.554688 39.734375 272.421875 40.613281 C 272.335938 41.492188 272.027344 42.417969 271.5 43.34375 C 271.015625 44.269531 270.441406 45.015625 269.78125 45.589844 C 269.121094 46.160156 268.375 46.558594 267.625 46.820312 C 266.835938 47.042969 266.042969 47.128906 265.207031 47.042969 C 264.371094 46.953125 263.535156 46.691406 262.742188 46.25 C 261.949219 45.808594 261.246094 45.28125 260.71875 44.664062 C 260.144531 44.046875 259.792969 43.34375 259.53125 42.59375 C 259.308594 41.847656 259.265625 41.007812 259.355469 40.128906 C 259.441406 39.25 259.75 38.324219 260.234375 37.398438 C 260.71875 36.476562 261.289062 35.726562 261.992188 35.152344 C 262.652344 34.582031 263.402344 34.183594 264.195312 33.921875 C 264.984375 33.65625 265.777344 33.613281 266.613281 33.699219 C 267.449219 33.789062 268.285156 34.054688 269.078125 34.492188 Z M 249.058594 25.644531 L 249.671875 31.324219 L 254.160156 27.757812 L 256.976562 28.902344 L 249.9375 34.183594 L 247.914062 39.117188 L 245.316406 38.105469 L 247.339844 33.171875 L 246.152344 24.5 Z M 244.523438 23.96875 L 243.910156 26.082031 L 240.433594 25.027344 L 237.351562 35.285156 L 234.667969 34.492188 L 237.75 24.234375 L 234.316406 23.222656 L 234.933594 21.109375 Z M 233.171875 20.625 L 230.09375 33.171875 L 227.363281 32.511719 L 230.445312 19.964844 Z M 220.457031 23.839844 L 221.554688 24.058594 C 222.257812 24.191406 222.917969 24.144531 223.402344 23.96875 C 223.933594 23.75 224.238281 23.308594 224.371094 22.648438 C 224.503906 22.03125 224.414062 21.546875 224.109375 21.152344 C 223.800781 20.757812 223.316406 20.492188 222.566406 20.359375 L 221.160156 20.097656 Z M 218.871094 17.410156 L 223.667969 18.335938 C 224.371094 18.464844 224.988281 18.6875 225.472656 18.996094 C 225.957031 19.304688 226.351562 19.699219 226.660156 20.097656 C 226.96875 20.535156 227.144531 20.976562 227.230469 21.503906 C 227.320312 22.03125 227.320312 22.5625 227.1875 23.089844 C 227.101562 23.617188 226.925781 24.058594 226.703125 24.410156 C 226.484375 24.761719 226.21875 25.070312 225.910156 25.335938 C 225.605469 25.597656 225.296875 25.777344 224.988281 25.90625 C 224.679688 26.039062 224.371094 26.128906 224.0625 26.214844 L 226.175781 31.984375 L 223.007812 31.367188 L 221.46875 26.214844 L 220.015625 25.953125 L 219.089844 30.617188 L 216.363281 30.089844 Z M 205.890625 21.988281 C 205.804688 22.738281 205.804688 23.398438 205.890625 24.015625 C 205.980469 24.585938 206.15625 25.113281 206.417969 25.511719 C 206.683594 25.90625 206.992188 26.261719 207.386719 26.480469 C 207.78125 26.699219 208.222656 26.875 208.664062 26.921875 C 209.101562 26.964844 209.585938 26.964844 210.027344 26.832031 C 210.46875 26.699219 210.863281 26.480469 211.214844 26.171875 C 211.566406 25.863281 211.875 25.421875 212.140625 24.851562 C 212.402344 24.324219 212.578125 23.664062 212.667969 22.914062 C 212.800781 22.121094 212.800781 21.460938 212.667969 20.84375 C 212.578125 20.273438 212.402344 19.742188 212.140625 19.347656 C 211.875 18.949219 211.523438 18.644531 211.128906 18.421875 C 210.730469 18.203125 210.292969 18.027344 209.851562 17.980469 C 209.367188 17.894531 208.925781 17.9375 208.488281 18.070312 C 208.046875 18.203125 207.652344 18.421875 207.300781 18.773438 C 206.945312 19.082031 206.640625 19.523438 206.375 20.097656 C 206.15625 20.582031 205.980469 21.242188 205.890625 21.988281 Z M 210.246094 15.867188 C 211.171875 16 211.964844 16.265625 212.710938 16.660156 C 213.460938 17.058594 214.03125 17.585938 214.515625 18.246094 C 215 18.90625 215.308594 19.65625 215.527344 20.492188 C 215.746094 21.371094 215.746094 22.339844 215.617188 23.398438 C 215.484375 24.410156 215.175781 25.335938 214.734375 26.082031 C 214.296875 26.832031 213.765625 27.492188 213.105469 27.976562 C 212.445312 28.460938 211.742188 28.8125 210.90625 28.988281 C 210.070312 29.164062 209.234375 29.210938 208.3125 29.078125 C 207.386719 28.945312 206.59375 28.679688 205.847656 28.285156 C 205.097656 27.890625 204.527344 27.359375 204.042969 26.746094 C 203.558594 26.082031 203.207031 25.335938 203.03125 24.5 C 202.8125 23.617188 202.8125 22.695312 202.941406 21.636719 C 203.074219 20.625 203.382812 19.699219 203.824219 18.949219 C 204.261719 18.160156 204.789062 17.542969 205.449219 17.058594 C 206.109375 16.574219 206.816406 16.222656 207.652344 16.046875 C 208.441406 15.78125 209.324219 15.738281 210.246094 15.867188 Z M 189.742188 27.492188 L 190.269531 14.59375 L 193.085938 14.722656 L 192.867188 19.832031 L 197.75 20.007812 L 197.96875 14.898438 L 200.785156 15.03125 L 200.257812 27.933594 L 197.441406 27.800781 L 197.664062 22.253906 L 192.777344 22.03125 L 192.558594 27.582031 Z M 188.464844 14.59375 L 188.511719 16.792969 L 184.859375 16.835938 L 184.988281 27.535156 L 182.171875 27.582031 L 182.042969 16.882812 L 178.476562 16.925781 L 178.433594 14.722656 Z M 165.363281 16 L 168.136719 15.691406 L 168.972656 23.355469 C 169.105469 24.410156 169.414062 25.203125 169.898438 25.6875 C 170.382812 26.171875 171.085938 26.390625 171.964844 26.304688 C 172.84375 26.214844 173.460938 25.863281 173.769531 25.246094 C 174.121094 24.628906 174.210938 23.925781 174.121094 23 L 173.242188 15.078125 L 176.011719 14.769531 L 176.894531 22.515625 C 177.113281 24.324219 176.804688 25.6875 176.011719 26.65625 C 175.222656 27.625 173.945312 28.242188 172.183594 28.417969 C 170.511719 28.59375 169.148438 28.328125 168.050781 27.535156 C 166.992188 26.746094 166.332031 25.46875 166.15625 23.574219 Z M 155.992188 17.410156 L 158.851562 16.925781 L 165.671875 28.902344 L 162.726562 29.386719 L 161.273438 26.613281 L 156.742188 27.359375 L 156.210938 30.441406 L 153.351562 30.925781 Z M 157.003906 25.203125 L 160.214844 24.675781 L 159.335938 23.089844 C 159.074219 22.605469 158.808594 22.078125 158.542969 21.59375 C 158.28125 21.109375 158.058594 20.582031 157.796875 20.050781 L 157.753906 20.050781 C 157.707031 20.582031 157.621094 21.152344 157.53125 21.679688 C 157.445312 22.253906 157.355469 22.824219 157.269531 23.398438 Z M 137.292969 21.8125 L 140.019531 21.0625 L 142.792969 31.410156 L 147.808594 30.046875 L 148.378906 32.203125 L 140.636719 34.273438 Z M 127.699219 25.027344 L 130.425781 24.015625 L 139.449219 34.40625 L 136.675781 35.460938 L 134.695312 33.039062 L 130.382812 34.667969 L 130.472656 37.796875 L 127.742188 38.808594 Z M 130.25 32.46875 L 133.332031 31.324219 L 132.1875 29.914062 C 131.835938 29.472656 131.484375 29.035156 131.132812 28.59375 C 130.777344 28.152344 130.472656 27.710938 130.117188 27.230469 L 130.074219 27.230469 C 130.117188 27.757812 130.164062 28.328125 130.164062 28.902344 C 130.207031 29.472656 130.207031 30.046875 130.207031 30.617188 Z M 123.652344 26.4375 L 124.53125 28.460938 L 121.1875 29.914062 L 125.453125 39.734375 L 122.902344 40.832031 L 118.632812 31.015625 L 115.378906 32.425781 L 114.5 30.398438 Z M 103.101562 35.992188 L 105.390625 34.84375 L 112.386719 38.984375 C 112.871094 39.25 113.308594 39.558594 113.75 39.820312 C 114.191406 40.128906 114.5 40.347656 114.675781 40.527344 L 114.71875 40.527344 C 114.234375 39.777344 113.839844 38.984375 113.441406 38.191406 C 113.046875 37.398438 112.648438 36.605469 112.253906 35.8125 L 110.539062 32.335938 L 112.871094 31.191406 L 118.589844 42.769531 L 116.300781 43.914062 L 109.789062 40.085938 C 109.527344 39.910156 109.21875 39.734375 108.953125 39.558594 C 108.691406 39.378906 108.382812 39.203125 108.160156 39.027344 C 107.898438 38.851562 107.675781 38.675781 107.457031 38.542969 C 107.238281 38.410156 107.105469 38.28125 106.972656 38.148438 L 106.929688 38.148438 C 107.414062 38.984375 107.855469 39.777344 108.25 40.527344 C 108.644531 41.316406 109.042969 42.109375 109.4375 42.902344 L 111.152344 46.425781 L 108.820312 47.570312 Z M 93.375 41.933594 L 100.503906 37.488281 L 101.648438 39.335938 L 96.898438 42.285156 L 98.4375 44.796875 L 102.75 42.109375 L 103.894531 43.960938 L 99.582031 46.644531 L 101.386719 49.59375 L 106.179688 46.601562 L 107.324219 48.449219 L 100.152344 52.898438 Z M 79.824219 51.136719 L 82.726562 49.109375 L 87.570312 52.898438 C 87.789062 53.074219 88.007812 53.25 88.273438 53.425781 C 88.535156 53.601562 88.757812 53.824219 88.976562 54.042969 C 89.195312 54.261719 89.460938 54.4375 89.679688 54.660156 C 89.902344 54.835938 90.078125 55.054688 90.253906 55.230469 L 90.339844 55.1875 C 90.253906 54.96875 90.164062 54.746094 90.03125 54.484375 C 89.902344 54.21875 89.8125 53.910156 89.679688 53.601562 C 89.546875 53.292969 89.460938 52.984375 89.371094 52.722656 C 89.285156 52.414062 89.195312 52.148438 89.109375 51.929688 L 87.261719 46.074219 L 90.164062 44.046875 L 98.261719 54.128906 L 96.105469 55.628906 C 95.226562 54.484375 94.34375 53.382812 93.464844 52.28125 C 92.585938 51.179688 91.75 49.992188 90.867188 48.847656 L 89.902344 47.480469 L 89.855469 47.527344 C 90.121094 48.230469 90.429688 49.023438 90.691406 49.816406 C 91 50.609375 91.222656 51.3125 91.398438 51.929688 L 93.15625 57.695312 L 91.351562 58.929688 L 86.554688 55.230469 C 85.941406 54.746094 85.324219 54.21875 84.707031 53.691406 C 84.09375 53.117188 83.519531 52.632812 83.082031 52.191406 L 83.035156 52.238281 C 83.300781 52.632812 83.609375 53.074219 83.917969 53.515625 C 84.222656 53.953125 84.488281 54.4375 84.796875 54.878906 C 85.058594 55.320312 85.367188 55.757812 85.632812 56.199219 C 85.898438 56.640625 86.160156 57.035156 86.378906 57.386719 L 88.492188 60.910156 L 86.335938 62.40625 Z M 68.207031 61.085938 L 70.144531 59.457031 L 77.933594 61.792969 C 78.460938 61.96875 78.945312 62.144531 79.429688 62.320312 C 79.914062 62.496094 80.265625 62.628906 80.527344 62.761719 L 80.570312 62.714844 C 79.957031 62.101562 79.339844 61.4375 78.769531 60.777344 C 78.195312 60.117188 77.625 59.414062 77.050781 58.753906 L 74.542969 55.804688 L 76.523438 54.128906 L 84.839844 63.992188 L 82.90625 65.621094 L 75.6875 63.507812 C 75.378906 63.421875 75.070312 63.289062 74.71875 63.199219 C 74.410156 63.070312 74.105469 62.980469 73.796875 62.847656 C 73.488281 62.714844 73.222656 62.628906 73.003906 62.539062 C 72.785156 62.453125 72.5625 62.363281 72.433594 62.277344 L 72.386719 62.320312 C 73.046875 62.980469 73.664062 63.683594 74.234375 64.34375 C 74.808594 65.003906 75.378906 65.667969 75.953125 66.371094 L 78.460938 69.363281 L 76.523438 70.949219 Z M 65.699219 72.183594 L 66.492188 71.390625 C 67.019531 70.863281 67.328125 70.332031 67.460938 69.761719 C 67.589844 69.234375 67.371094 68.703125 66.886719 68.21875 C 66.449219 67.78125 65.964844 67.601562 65.480469 67.601562 C 64.996094 67.648438 64.46875 67.910156 63.984375 68.441406 L 63.015625 69.453125 Z M 59.449219 69.980469 L 62.882812 66.503906 C 63.410156 65.972656 63.894531 65.621094 64.46875 65.359375 C 64.996094 65.09375 65.523438 64.960938 66.050781 64.960938 C 66.578125 64.960938 67.0625 65.050781 67.546875 65.269531 C 68.03125 65.488281 68.472656 65.796875 68.867188 66.152344 C 69.21875 66.503906 69.527344 66.898438 69.703125 67.296875 C 69.878906 67.691406 70.011719 68.085938 70.011719 68.441406 C 70.054688 68.835938 70.054688 69.1875 69.96875 69.539062 C 69.921875 69.894531 69.835938 70.203125 69.703125 70.464844 L 75.644531 71.875 L 73.398438 74.164062 L 68.296875 72.621094 L 67.238281 73.679688 L 70.628906 77.027344 L 68.691406 79.007812 Z M 52.324219 77.949219 L 57.910156 71.699219 L 59.539062 73.152344 L 55.800781 77.335938 L 58 79.316406 L 61.386719 75.527344 L 62.972656 76.980469 L 59.582031 80.769531 L 62.179688 83.058594 L 65.964844 78.832031 L 67.589844 80.285156 L 61.960938 86.582031 Z M 45.238281 87.242188 L 51.839844 89.398438 C 52.058594 89.484375 52.324219 89.574219 52.628906 89.664062 C 52.9375 89.75 53.246094 89.882812 53.554688 90.015625 C 53.863281 90.148438 54.214844 90.234375 54.523438 90.367188 C 54.832031 90.5 55.140625 90.585938 55.359375 90.71875 L 55.402344 90.675781 C 55.050781 90.277344 54.65625 89.792969 54.257812 89.222656 C 53.820312 88.648438 53.46875 88.121094 53.113281 87.679688 L 49.066406 82 L 50.78125 79.667969 L 58.484375 91.027344 L 56.679688 93.492188 L 43.523438 89.664062 Z M 43.039062 102.035156 C 43.65625 102.476562 44.269531 102.738281 44.84375 102.914062 C 45.414062 103.089844 45.941406 103.136719 46.425781 103.089844 C 46.910156 103.046875 47.351562 102.871094 47.746094 102.652344 C 48.140625 102.386719 48.449219 102.078125 48.714844 101.683594 C 48.980469 101.285156 49.15625 100.890625 49.199219 100.449219 C 49.285156 100.007812 49.242188 99.570312 49.109375 99.085938 C 48.980469 98.644531 48.714844 98.160156 48.320312 97.71875 C 47.921875 97.28125 47.4375 96.839844 46.824219 96.398438 C 46.164062 95.957031 45.546875 95.648438 44.972656 95.519531 C 44.402344 95.34375 43.875 95.296875 43.390625 95.34375 C 42.90625 95.386719 42.464844 95.5625 42.113281 95.78125 C 41.71875 96.046875 41.410156 96.355469 41.144531 96.75 C 40.882812 97.148438 40.707031 97.585938 40.664062 98.027344 C 40.574219 98.46875 40.617188 98.910156 40.792969 99.394531 C 40.925781 99.832031 41.191406 100.316406 41.585938 100.757812 C 41.894531 101.152344 42.421875 101.59375 43.039062 102.035156 Z M 39.386719 95.429688 C 39.871094 94.679688 40.484375 94.066406 41.144531 93.582031 C 41.804688 93.097656 42.554688 92.789062 43.347656 92.613281 C 44.136719 92.4375 44.972656 92.480469 45.808594 92.65625 C 46.691406 92.832031 47.570312 93.230469 48.449219 93.84375 C 49.332031 94.417969 49.992188 95.078125 50.519531 95.78125 C 51.003906 96.488281 51.355469 97.28125 51.53125 98.070312 C 51.707031 98.863281 51.664062 99.65625 51.488281 100.492188 C 51.3125 101.328125 50.957031 102.121094 50.476562 102.871094 C 49.992188 103.621094 49.375 104.28125 48.714844 104.765625 C 48.054688 105.25 47.304688 105.558594 46.515625 105.734375 C 45.722656 105.863281 44.929688 105.863281 44.050781 105.6875 C 43.171875 105.511719 42.289062 105.117188 41.410156 104.542969 C 40.53125 103.972656 39.871094 103.3125 39.34375 102.605469 C 38.8125 101.859375 38.507812 101.109375 38.328125 100.316406 C 38.152344 99.523438 38.152344 98.6875 38.328125 97.894531 C 38.507812 97.015625 38.859375 96.222656 39.386719 95.429688 Z M 32.609375 106.964844 C 33.003906 106.261719 33.402344 105.644531 33.796875 105.160156 C 34.195312 104.675781 34.632812 104.234375 35.074219 103.929688 L 36.480469 105.335938 C 36.042969 105.644531 35.691406 105.996094 35.335938 106.394531 C 34.984375 106.789062 34.722656 107.1875 34.5 107.625 C 34.238281 108.109375 34.0625 108.640625 33.972656 109.167969 C 33.886719 109.695312 33.929688 110.222656 34.105469 110.707031 C 34.28125 111.191406 34.546875 111.722656 34.984375 112.160156 C 35.425781 112.644531 35.996094 113.042969 36.703125 113.4375 C 38.023438 114.140625 39.167969 114.363281 40.179688 114.1875 C 41.191406 113.964844 41.980469 113.351562 42.554688 112.25 C 42.90625 111.632812 43.082031 111.105469 43.125 110.753906 L 40.484375 109.34375 L 39.472656 111.238281 L 37.625 110.269531 L 39.871094 105.996094 L 45.632812 109.078125 C 45.589844 109.652344 45.457031 110.3125 45.28125 110.972656 C 45.0625 111.675781 44.753906 112.425781 44.359375 113.21875 C 43.917969 114.054688 43.347656 114.804688 42.730469 115.375 C 42.070312 115.992188 41.367188 116.386719 40.574219 116.695312 C 39.78125 116.960938 38.945312 117.046875 38.066406 117.003906 C 37.1875 116.917969 36.261719 116.652344 35.292969 116.125 C 34.371094 115.59375 33.621094 114.980469 33.050781 114.273438 C 32.476562 113.570312 32.082031 112.820312 31.863281 112.027344 C 31.640625 111.238281 31.597656 110.398438 31.730469 109.519531 C 31.863281 108.683594 32.125 107.847656 32.609375 106.964844 Z M 31.464844 123.652344 L 31.90625 122.640625 C 32.167969 121.980469 32.257812 121.363281 32.167969 120.789062 C 32.082031 120.261719 31.6875 119.824219 31.027344 119.558594 C 30.453125 119.339844 29.925781 119.339844 29.484375 119.558594 C 29.046875 119.777344 28.648438 120.21875 28.386719 120.878906 L 27.859375 122.199219 Z M 24.867188 123.960938 L 26.714844 119.425781 C 26.976562 118.765625 27.328125 118.191406 27.726562 117.796875 C 28.121094 117.355469 28.5625 117.046875 29.046875 116.828125 C 29.53125 116.609375 30.011719 116.519531 30.542969 116.5625 C 31.070312 116.5625 31.597656 116.695312 32.082031 116.917969 C 32.566406 117.09375 32.960938 117.355469 33.269531 117.664062 C 33.578125 117.972656 33.84375 118.28125 34.019531 118.632812 C 34.195312 118.984375 34.324219 119.292969 34.414062 119.644531 C 34.5 120 34.546875 120.308594 34.546875 120.613281 L 40.574219 119.691406 L 39.34375 122.683594 L 34.019531 123.167969 L 33.445312 124.535156 L 37.847656 126.339844 L 36.789062 128.9375 Z M 21.082031 134.042969 L 23.898438 126.117188 L 25.921875 126.824219 L 24.074219 132.105469 L 26.84375 133.074219 L 28.515625 128.320312 L 30.542969 129.023438 L 28.871094 133.78125 L 32.125 134.925781 L 34.019531 129.597656 L 36.042969 130.300781 L 33.226562 138.359375 Z M 20.507812 135.71875 L 22.621094 136.332031 L 21.566406 139.8125 L 31.816406 142.894531 L 31.027344 145.578125 L 20.773438 142.496094 L 19.761719 145.933594 L 17.648438 145.316406 Z M 14.832031 158.304688 L 15.316406 155.792969 L 22.839844 152.710938 C 23.371094 152.492188 23.851562 152.316406 24.335938 152.140625 C 24.820312 151.964844 25.171875 151.875 25.4375 151.789062 L 25.4375 151.742188 C 24.558594 151.65625 23.675781 151.523438 22.796875 151.347656 C 21.917969 151.171875 21.082031 150.996094 20.15625 150.820312 L 16.371094 150.070312 L 16.855469 147.515625 L 29.53125 149.984375 L 29.046875 152.492188 L 22.136719 155.484375 C 21.828125 155.617188 21.519531 155.707031 21.214844 155.839844 C 20.90625 155.96875 20.597656 156.058594 20.289062 156.148438 C 19.980469 156.234375 19.71875 156.324219 19.496094 156.410156 C 19.234375 156.5 19.058594 156.542969 18.882812 156.542969 L 18.882812 156.585938 C 19.804688 156.71875 20.730469 156.851562 21.566406 156.984375 C 22.402344 157.160156 23.28125 157.292969 24.160156 157.46875 L 27.988281 158.214844 L 27.460938 160.769531 Z M 14.261719 161.296875 L 27.019531 163.101562 L 26.625 165.878906 L 13.863281 164.070312 Z M 20.070312 180.054688 L 22.839844 188.683594 L 31.90625 188.683594 L 24.558594 194.011719 L 27.375 202.597656 L 20.070312 197.269531 L 12.765625 202.597656 L 15.582031 194.011719 L 8.234375 188.683594 L 17.296875 188.683594 Z M 174.691406 111.632812 L 174.871094 89 L 158.5 88.957031 L 158.414062 96.707031 L 166.023438 96.75 L 166.199219 105.820312 C 160.65625 106.703125 155.859375 106.65625 153.089844 103.136719 C 147.984375 96.664062 147.457031 75.21875 164.878906 77.113281 C 168.003906 77.464844 169.632812 78.699219 171.921875 79.007812 L 174.78125 72.050781 C 168.3125 67.207031 140.855469 65.226562 140.898438 91.335938 C 140.945312 101.023438 143.757812 107.933594 149.742188 111.632812 C 155.375 115.15625 168.578125 114.847656 174.691406 111.632812 Z M 180.546875 113.351562 L 189.785156 113.613281 L 193 103.222656 L 208.046875 103.179688 L 210.996094 113.480469 L 220.410156 113.570312 L 205.890625 69.71875 L 194.976562 69.585938 Z M 200.609375 77.246094 L 205.757812 95.296875 L 195.332031 95.164062 Z M 226.570312 113.480469 C 245.757812 115.507812 261.027344 111.367188 260.980469 91.820312 C 260.9375 71.300781 246.242188 68.085938 226.660156 69.847656 Z M 235.546875 77.421875 C 246.988281 77.15625 251.917969 80.0625 251.742188 91.820312 C 251.609375 102.605469 246.460938 106.394531 235.371094 105.777344 Z M 123.519531 113.480469 L 132.40625 113.660156 L 132.449219 69.847656 L 123.605469 69.804688 Z M 174.871094 38.941406 C 153.21875 40.964844 133.59375 47.042969 117.269531 55.980469 C 64.730469 84.820312 35.03125 138.492188 39.167969 200.21875 C 41.453125 234.210938 57.207031 266.394531 79.472656 289.953125 C 89.152344 300.167969 98.21875 307.609375 110.363281 315.136719 C 136.457031 331.296875 168.179688 338.648438 200.609375 336.140625 C 277.261719 330.195312 343.839844 260.277344 336.003906 174.992188 C 332.222656 133.691406 314.445312 101.417969 286.28125 75.835938 C 261.90625 53.691406 221.292969 34.582031 174.871094 38.941406 Z M 40.265625 196.476562 C 38.726562 173.671875 43.039062 151.964844 50.34375 133.164062 C 56.152344 118.238281 64.46875 104.589844 74.367188 92.699219 C 79.429688 86.667969 82.15625 84.203125 87.921875 78.480469 C 96.0625 70.464844 110.800781 60.910156 120.746094 55.757812 C 157.3125 36.828125 202.941406 34.539062 241.53125 49.949219 C 337.0625 87.988281 366.367188 209.027344 296.667969 287.089844 C 276.382812 309.851562 241.664062 332.21875 196.828125 335.039062 C 154.144531 337.722656 117.445312 322.621094 87.875 296.644531 C 75.378906 285.679688 63.808594 269.390625 56.019531 254.550781 C 47.304688 237.863281 41.761719 218.050781 40.265625 196.476562 Z M 1.234375 199.296875 C 5.8125 251.46875 25.347656 291.582031 61.785156 325.617188 C 90.691406 352.648438 142.085938 378.804688 199.511719 374.179688 C 237.96875 371.097656 272.863281 358.152344 301.332031 335.875 C 306.523438 331.824219 315.675781 324.03125 320.121094 319.363281 C 326.722656 312.449219 330.152344 308.796875 336.3125 300.695312 C 376.179688 248.386719 385.113281 181.15625 361.132812 118.238281 C 358.929688 112.46875 356.421875 107.273438 353.957031 102.34375 C 345.160156 84.949219 333.011719 68.394531 319.417969 54.921875 C 313.476562 49.023438 307.582031 43.960938 300.804688 38.675781 C 266.613281 12.125 221.027344 -2.007812 176.234375 0.8125 C 119.074219 4.464844 75.246094 32.910156 49.769531 61.394531 C 35.867188 76.9375 23.28125 94.859375 13.910156 118.808594 C 4.84375 141.925781 -1.273438 170.984375 1.234375 199.296875 Z M 372.484375 200.21875 C 368.128906 250.984375 347.445312 292.902344 312.15625 325.132812 C 304.410156 332.21875 295.566406 338.605469 285.84375 344.988281 C 276.953125 350.84375 265.734375 356.261719 254.820312 360.621094 C 232.160156 369.6875 203.292969 374.882812 175.222656 372.769531 C 124.132812 368.941406 83.433594 347.628906 50.253906 312.230469 C 18.046875 277.886719 -1.316406 225.316406 2.730469 174.550781 C 4.976562 146.59375 11.753906 124.179688 22.886719 102.386719 C 30.628906 87.195312 44.929688 67.164062 57.074219 55.628906 C 64.292969 48.757812 67.855469 45.851562 75.777344 39.511719 C 87.789062 29.871094 105.742188 20.449219 120.480469 14.546875 C 183.363281 -10.679688 255.878906 2.660156 307.050781 45.675781 C 311.101562 49.066406 321.792969 59.105469 325.09375 62.9375 C 339.085938 79.226562 350.878906 96.132812 360.425781 120.4375 C 369.492188 143.421875 374.902344 172.128906 372.484375 200.21875 Z M 64.597656 157.597656 C 64.511719 151.789062 64.421875 139.988281 61.828125 135.71875 L 59.011719 143.246094 C 57.25 150.246094 56.328125 164.601562 62.796875 168.035156 L 61.605469 189.917969 C 59.144531 184.675781 57.558594 172.527344 51.707031 169.3125 C 51.3125 178.601562 52.324219 188.242188 57.207031 195.859375 C 59.757812 199.910156 59.539062 198.371094 63.015625 200.835938 C 63.585938 204.753906 64.027344 208.144531 64.730469 211.933594 C 65.304688 214.96875 66.710938 219.371094 66.886719 222.148438 C 64.160156 216.46875 57.074219 206.121094 51.792969 204.316406 C 52.808594 213.738281 59.714844 230.601562 70.144531 232.007812 C 73.488281 240.640625 77.050781 246.890625 79.078125 251.953125 C 75.292969 247.949219 67.285156 239.230469 59.628906 238.042969 C 61.386719 244.910156 72.433594 261.246094 83.960938 259.96875 C 85.71875 261.816406 88.007812 265.472656 89.636719 267.585938 C 91.574219 270.140625 94.257812 272.648438 95.886719 275.203125 C 88.273438 272.691406 84.972656 267.9375 74.5 268.464844 C 77.140625 274.277344 87.128906 281.277344 93.816406 283.214844 C 99.667969 284.933594 99.976562 283.304688 104.15625 282.6875 C 106.664062 284.710938 109.128906 286.5625 111.988281 288.542969 C 114.761719 290.4375 117.621094 292.019531 120.480469 293.914062 C 113.707031 293.605469 102.441406 289.644531 96.675781 294.003906 C 100.066406 297.789062 112.386719 302.234375 119.25 302.234375 C 125.058594 302.234375 125.984375 301.179688 129.152344 298.363281 C 133.15625 299.199219 144.816406 304.921875 148.644531 304.527344 C 142.175781 305.449219 128.445312 305.933594 124.574219 311.878906 C 128.09375 313.949219 139.050781 314.695312 143.714844 314.167969 C 146.75 313.816406 149.65625 313.023438 152.121094 311.835938 C 156.125 309.898438 155.507812 309.238281 157.839844 306.375 C 164.089844 306.816406 180.589844 310.335938 184.859375 313.289062 L 168.929688 323.941406 C 166.992188 325.527344 168.050781 324.601562 168.488281 326.011719 L 170.203125 325.21875 C 173.855469 322.488281 184.023438 314.828125 187.542969 314.652344 C 189.390625 314.5625 196.5625 319.097656 198.101562 320.113281 C 199.863281 321.257812 201.09375 322.179688 202.8125 323.414062 C 204.085938 324.339844 206.109375 326.410156 207.34375 325.96875 C 208.003906 324.339844 205.933594 323.546875 204.308594 322.359375 L 195.242188 316.324219 C 194.230469 315.753906 193.789062 315.53125 192.777344 315.003906 L 190.359375 313.199219 C 195.023438 310.46875 211.171875 306.683594 217.640625 306.242188 C 220.191406 311.128906 224.59375 313.113281 231.632812 313.992188 C 236.296875 314.5625 247.078125 313.902344 250.859375 311.789062 C 247.078125 306.066406 233.261719 305.1875 226.792969 304.480469 C 231.324219 304.171875 241.621094 299.859375 245.890625 298.230469 C 248.222656 299.507812 248.351562 301.265625 252.972656 301.929688 C 260.980469 303.074219 273.433594 299.066406 278.714844 293.871094 C 273.390625 289.777344 260.980469 293.34375 254.910156 293.828125 C 257.328125 292.066406 260.542969 290.347656 263.183594 288.585938 C 265.996094 286.695312 268.636719 284.226562 271.277344 282.511719 C 275.238281 283.433594 275.195312 284.710938 280.5625 283.347656 C 286.328125 281.851562 290.902344 278.636719 295.082031 274.804688 C 297.0625 273 299.878906 271.105469 300.714844 268.289062 C 296.449219 268.203125 292.53125 269.171875 288.921875 270.535156 C 285.625 271.8125 282.367188 274.058594 279.59375 275.027344 C 280.652344 273 283.90625 269.875 285.578125 267.671875 C 287.03125 265.734375 290.109375 262.039062 290.949219 259.878906 C 299.265625 260.453125 302.519531 256.535156 306.613281 252.484375 C 309.078125 250.015625 314.578125 242.3125 315.589844 238.085938 C 309.339844 239.140625 304.675781 243.546875 300.582031 247.375 C 299.308594 248.5625 297.769531 250.5 296.402344 251.515625 C 297.636719 248.476562 299.617188 245.261719 301.023438 242.179688 C 304.058594 235.445312 303.3125 232.847656 307.316406 231.523438 C 312.15625 229.941406 315.0625 225.890625 317.523438 221.441406 C 319.59375 217.789062 323.597656 208.851562 323.464844 204.09375 C 320.429688 205.8125 317.347656 208.851562 315.191406 211.578125 C 313.125 214.175781 310.660156 219.371094 308.59375 221.398438 C 308.898438 218.402344 310.132812 214.660156 310.75 211.359375 C 311.410156 207.703125 311.804688 204.359375 312.507812 200.617188 C 315.71875 198.765625 315.71875 199.339844 317.65625 196.566406 C 323.113281 188.859375 324.035156 178.46875 323.597656 169.003906 C 321.089844 170.941406 318.800781 175.386719 317.347656 178.820312 C 316.46875 180.890625 313.519531 189.210938 313.476562 190.886719 C 313.125 187.539062 313.386719 183.3125 313.34375 179.835938 C 313.257812 175.785156 312.816406 172.4375 312.507812 168.519531 C 314.222656 165.878906 314.972656 166.492188 316.292969 162.664062 C 318.976562 154.914062 317.613281 142.058594 313.652344 135.585938 L 311.101562 146.152344 C 310.660156 150.335938 311.054688 154.871094 310.574219 158.921875 C 310.042969 155.089844 307.757812 150.6875 307.273438 147.207031 C 306.480469 141.351562 306.347656 139.769531 303.929688 134.925781 C 301.066406 129.246094 294.117188 121.097656 288.042969 119.46875 C 289.671875 124.09375 302.167969 142.761719 305.601562 146.902344 C 307.183594 148.835938 309.121094 155 309.339844 158.128906 C 306.261719 153.285156 302.078125 146.769531 294.378906 146.460938 C 295.964844 151.214844 303.753906 163.542969 308.328125 166.800781 C 309.867188 167.902344 310.617188 167.59375 311.453125 169.003906 C 312.640625 172.921875 312.859375 185.953125 311.9375 190.402344 C 313.210938 185.558594 305.90625 173.582031 300.9375 172.21875 C 301.726562 181.242188 305.425781 195.554688 311.1875 200.089844 C 311.410156 204.226562 308.769531 217.917969 307.097656 220.78125 C 306.789062 214.96875 305.90625 202.90625 299.835938 200.441406 C 298.867188 207.132812 299.21875 223.378906 302.078125 228.574219 C 304.410156 232.800781 304.410156 231.261719 300.804688 239.496094 C 299.042969 243.5 297.460938 246.40625 295.480469 249.886719 C 296.183594 243.457031 297.855469 232.230469 292.398438 227.914062 C 290.375 233.550781 288.4375 244.335938 288.4375 250.941406 C 288.4375 259.746094 292.621094 256.050781 287.074219 263.492188 C 285.226562 265.957031 281.222656 271.589844 278.714844 272.914062 C 280.121094 267.1875 282.632812 263.492188 281.53125 256.664062 C 281.265625 255.035156 280.914062 253.496094 279.945312 252.175781 C 279.902344 252.128906 279.816406 252 279.726562 251.953125 C 277.4375 255.125 275.019531 261.15625 273.433594 264.898438 C 271.015625 270.578125 269.648438 274.410156 270.574219 281.410156 C 268.902344 282.113281 265.25 285.371094 263.269531 286.738281 C 261.070312 288.234375 257.769531 290.613281 255.128906 291.492188 C 256.097656 289.644531 257.109375 289.027344 258.253906 287.355469 C 261.597656 282.554688 263.445312 276.789062 262.566406 270.492188 C 260.628906 270.886719 253.589844 279.914062 252.355469 281.453125 C 249.144531 285.59375 245.84375 289.863281 245.492188 296.734375 C 240.167969 298.40625 234.273438 301.75 227.890625 302.28125 C 230.707031 299.59375 233.523438 298.363281 236.164062 294.882812 C 238.453125 291.933594 240.34375 288.058594 240.433594 283.214844 C 234.667969 285.195312 225.605469 292.769531 221.421875 297.085938 C 218.652344 299.902344 219.046875 301.046875 217.242188 304.261719 C 215.085938 305.1875 205.363281 306.507812 202.0625 307.386719 C 199.378906 308.09375 188.554688 311.964844 187.894531 312.054688 C 187.144531 312.097656 176.367188 308.222656 173.769531 307.519531 C 168.53125 306.109375 163.5625 305.449219 157.972656 304.480469 C 155.597656 298.449219 153.570312 296.117188 148.335938 292.019531 C 145.125 289.511719 138.65625 284.757812 134.914062 283.128906 C 134.738281 287.75 136.984375 291.890625 139.09375 294.707031 C 140.328125 296.378906 141.425781 297.523438 142.96875 298.847656 C 144.464844 300.167969 146.179688 301.136719 147.542969 302.324219 C 142.042969 301.839844 134.519531 298.492188 129.765625 296.601562 C 129.722656 290.082031 126.160156 285.59375 123.078125 281.585938 C 121.40625 279.386719 114.851562 271.238281 112.824219 270.316406 C 111.417969 282.113281 116.171875 284.097656 120.351562 291.582031 C 116.082031 290.390625 107.941406 283.480469 104.730469 281.191406 C 106.136719 273.175781 100.8125 260.671875 96.589844 253.453125 L 95.179688 251.734375 C 93.949219 255.34375 93.070312 258.382812 93.640625 263.050781 C 94.167969 267.410156 95.710938 269.523438 96.765625 273.222656 C 95.003906 272.296875 85.5 261.023438 85.191406 258.957031 C 85.105469 258.382812 88.933594 253.539062 84.796875 235.046875 C 84.355469 233.023438 84.003906 229.5 82.507812 227.78125 C 77.84375 236.941406 78.546875 238.304688 79.691406 249.53125 C 78.328125 247.773438 72.125 235.003906 71.597656 232.273438 C 71.375 231.214844 74.234375 226.988281 74.941406 223.46875 C 76.4375 216.027344 75.820312 207.792969 75.554688 200.175781 C 68.691406 205.855469 69.394531 211.800781 68.207031 222.058594 C 67.988281 218.449219 62.925781 202.773438 64.246094 200.132812 C 68.074219 196.742188 69.351562 193.351562 71.066406 187.628906 C 72.210938 183.886719 74.410156 175.828125 74.457031 172.042969 C 68.734375 174.816406 63.277344 184.148438 63.101562 190.535156 C 62.574219 184.0625 62.796875 174.460938 63.984375 168.34375 C 70.230469 166.539062 78.679688 152.535156 81.011719 146.546875 C 77.050781 146.636719 74.105469 148.707031 71.992188 150.464844 C 68.734375 153.195312 68.558594 155.265625 66.09375 157.777344 C 67.0625 148.707031 71.597656 145.402344 76.128906 138.09375 C 78.636719 134 86.25 123.210938 87.347656 119.46875 C 77.757812 122.15625 69.132812 135.847656 68.207031 145.625 C 67.945312 148.574219 67.503906 149.410156 66.753906 151.832031 C 66.09375 153.679688 65.832031 156.015625 64.597656 157.597656 Z M 126.644531 197.226562 L 126.730469 197.3125 C 126.6875 197.269531 126.644531 197.226562 126.644531 197.226562 Z M 235.902344 221.75 Z M 135.882812 136.730469 L 113.398438 136.730469 C 112.472656 136.730469 111.769531 137.476562 111.769531 138.359375 C 111.769531 139.285156 112.519531 139.988281 113.398438 139.988281 L 151.898438 139.988281 C 152.824219 139.988281 153.527344 140.738281 153.527344 141.617188 C 153.527344 142.542969 152.78125 143.246094 151.898438 143.246094 L 130.953125 143.246094 L 125.324219 151.304688 C 124.53125 152.359375 124.132812 152.800781 123.828125 154.078125 L 123.5625 154.472656 L 142.351562 154.472656 C 143.277344 154.472656 143.980469 155.222656 143.980469 156.101562 C 143.980469 157.027344 143.230469 157.730469 142.351562 157.730469 L 121.273438 157.730469 L 121.273438 157.6875 L 121.011719 157.6875 L 116.171875 165.570312 L 92.671875 165.570312 C 91.75 165.570312 91.042969 166.316406 91.042969 167.199219 C 91.042969 168.078125 91.792969 168.828125 92.671875 168.828125 L 138.699219 168.828125 C 139.625 168.828125 140.328125 169.574219 140.328125 170.457031 C 140.328125 171.378906 139.578125 172.085938 138.699219 172.085938 L 118.28125 172.085938 L 116.171875 179.703125 C 116.523438 181.332031 116.917969 181.550781 117.488281 182.785156 L 117.667969 183.136719 L 117.667969 183.179688 L 138.789062 183.179688 C 139.710938 183.179688 140.414062 183.929688 140.414062 184.808594 C 140.414062 185.734375 139.667969 186.4375 138.789062 186.4375 L 120.085938 186.4375 L 120.128906 186.484375 C 120.613281 187.980469 122.199219 189.875 123.5625 191.722656 L 125.234375 194.320312 L 125.277344 194.453125 L 106.972656 194.453125 C 106.050781 194.453125 105.34375 195.199219 105.34375 196.082031 C 105.34375 197.007812 106.09375 197.710938 106.972656 197.710938 L 127.566406 197.710938 L 127.742188 197.796875 L 128.710938 197.929688 C 130.425781 198.238281 131.308594 198.988281 134.386719 200.75 C 139.84375 203.875 138.742188 202.949219 145.476562 202.640625 C 151.371094 202.378906 151.679688 201.671875 156.210938 199.515625 C 161.449219 197.007812 160.480469 196.390625 165.496094 199.25 C 167.828125 200.570312 172.625 203.523438 174.691406 204.226562 C 174.078125 205.8125 174.03125 207 173.769531 208.585938 C 173.285156 210.304688 173.285156 211.050781 173.019531 212.0625 L 194.625 212.0625 C 195.550781 212.0625 196.253906 212.8125 196.253906 213.691406 C 196.253906 214.617188 195.507812 215.320312 194.625 215.320312 L 175.707031 215.320312 C 175.792969 215.367188 175.882812 215.410156 176.011719 215.453125 C 177.289062 218.359375 179.664062 218.625 180.808594 223.203125 L 180.765625 223.070312 L 161.359375 223.070312 C 160.4375 223.070312 159.734375 223.820312 159.734375 224.699219 C 159.734375 225.625 160.480469 226.328125 161.359375 226.328125 L 203.382812 226.328125 C 204.308594 226.328125 205.011719 227.078125 205.011719 227.957031 C 205.011719 228.882812 204.261719 229.585938 203.382812 229.585938 L 182.746094 229.585938 L 182.832031 229.808594 C 183.449219 234.34375 185.824219 233.59375 183.140625 237.644531 L 182.128906 240.902344 L 202.238281 240.902344 C 203.164062 240.902344 203.867188 241.652344 203.867188 242.53125 C 203.867188 243.457031 203.117188 244.160156 202.238281 244.160156 L 181.644531 244.160156 L 181.644531 243.984375 L 181.558594 244.558594 L 182.261719 252.4375 L 163.164062 252.4375 C 162.285156 252.4375 161.535156 253.1875 161.535156 254.066406 C 161.535156 254.992188 162.285156 255.695312 163.164062 255.695312 L 205.890625 255.695312 C 206.816406 255.695312 207.519531 256.445312 207.519531 257.328125 C 207.519531 258.25 206.769531 258.957031 205.890625 258.957031 L 186.75 258.957031 L 186.792969 259 L 187.761719 266.835938 C 188.203125 268.246094 188.6875 269.257812 189.257812 270.09375 L 210.113281 270.09375 C 211.039062 270.09375 211.742188 270.84375 211.742188 271.722656 C 211.742188 272.648438 210.996094 273.351562 210.113281 273.351562 L 191.765625 273.351562 C 191.898438 275.511719 194.230469 278.769531 194.890625 281.191406 L 174.515625 281.191406 C 173.59375 281.191406 172.890625 281.9375 172.890625 282.820312 C 172.890625 283.742188 173.636719 284.449219 174.515625 284.449219 L 196.035156 284.449219 C 196.167969 284.625 196.386719 284.84375 196.605469 285.109375 C 199.554688 286.648438 197.355469 286.78125 203.910156 285.417969 C 212.316406 283.699219 210.6875 284.710938 216.628906 280.265625 C 219.488281 278.109375 223.578125 273.835938 224.898438 270.183594 C 226 267.1875 225.605469 266.132812 227.496094 263.796875 C 228.902344 262.039062 230.753906 261.070312 231.015625 258.472656 C 232.160156 247.15625 229.828125 251.601562 240.390625 240.417969 C 242.808594 237.863281 242.105469 237.558594 241.488281 233.507812 C 240.742188 228.617188 239.550781 222.5 239.113281 217.566406 L 239.023438 217.566406 C 238.671875 217.964844 238.453125 218.535156 238.144531 219.109375 L 238.144531 219.152344 L 238.101562 219.195312 L 238.101562 219.417969 C 237.925781 219.636719 237.75 219.8125 237.527344 219.988281 L 237.441406 219.988281 C 237.398438 219.988281 237.308594 219.988281 237.265625 219.945312 L 235.945312 219.945312 L 235.902344 219.902344 L 235.855469 219.902344 L 235.769531 219.855469 L 235.726562 219.8125 L 235.679688 219.8125 L 235.636719 219.769531 L 235.59375 219.769531 L 233.875 221 L 233.4375 220.5625 L 233.390625 220.519531 L 233.480469 220.648438 L 233.4375 220.605469 L 233.390625 220.5625 L 233.347656 220.519531 L 233.304688 220.472656 C 232.863281 220.035156 232.601562 219.503906 232.335938 219.109375 L 232.292969 219.066406 L 232.25 219.019531 L 232.25 218.976562 L 232.203125 218.933594 L 232.160156 218.886719 L 232.074219 218.800781 L 232.027344 218.757812 L 231.984375 218.710938 L 231.941406 218.667969 L 231.894531 218.625 L 231.851562 218.582031 L 231.808594 218.535156 L 231.71875 218.492188 L 231.632812 218.449219 L 231.542969 218.40625 L 231.457031 218.359375 L 231.367188 218.316406 L 231.28125 218.273438 L 231.191406 218.226562 L 231.105469 218.183594 L 231.015625 218.140625 L 230.929688 218.097656 L 230.839844 218.050781 L 230.753906 218.007812 L 230.664062 217.964844 L 230.578125 217.921875 L 230.488281 217.875 L 230.398438 217.832031 L 230.3125 217.789062 L 230.222656 217.742188 L 230.136719 217.699219 L 230.046875 217.65625 L 229.960938 217.613281 L 229.871094 217.566406 L 229.785156 217.523438 L 229.695312 217.480469 L 229.609375 217.4375 L 229.519531 217.390625 L 229.433594 217.347656 L 228.816406 216.246094 L 228.726562 216.203125 L 228.640625 216.160156 L 228.550781 216.113281 L 228.464844 216.070312 L 228.375 216.027344 L 228.289062 215.984375 L 228.199219 215.9375 L 228.113281 215.894531 L 228.023438 215.851562 L 227.9375 215.804688 L 227.847656 215.761719 L 227.761719 215.71875 L 227.671875 215.675781 L 227.585938 215.628906 L 227.40625 215.542969 L 227.320312 215.5 L 227.230469 215.453125 L 227.144531 215.410156 L 227.054688 215.367188 L 226.96875 215.324219 L 226.878906 215.277344 L 226.792969 215.234375 L 226.703125 215.191406 L 226.617188 215.144531 L 226.527344 215.101562 L 226.441406 215.101562 L 226.351562 215.058594 L 225.957031 215.058594 L 225.734375 214.925781 L 225.691406 214.925781 C 225.25 214.707031 224.8125 214.484375 224.414062 214.308594 C 223.050781 213.78125 221.730469 213.472656 220.632812 213.515625 C 219.972656 213.5625 219.269531 213.605469 218.5625 213.691406 C 217.15625 213.914062 215.527344 214.265625 213.105469 214.175781 C 213.589844 209.289062 214.121094 209.90625 216.097656 207.089844 C 216.097656 206.867188 216.097656 206.648438 216.097656 206.429688 L 216.054688 204.316406 C 216.011719 203.65625 215.921875 203.300781 215.792969 202.992188 C 215.527344 202.6875 215.308594 202.421875 215.085938 202.203125 C 214.734375 201.847656 214.25 201.410156 213.636719 200.441406 L 212.929688 200.441406 C 208.882812 200.703125 209.101562 200.703125 208.664062 199.605469 L 208.488281 199.382812 L 208.441406 199.339844 L 208.398438 199.296875 L 208.355469 199.25 L 208.3125 199.207031 L 208.265625 199.164062 L 208.222656 199.121094 L 208.179688 199.074219 L 208.136719 199.03125 L 208.089844 198.988281 L 208.046875 198.945312 L 208.046875 198.898438 L 208.398438 198.636719 L 208.398438 198.589844 L 207.960938 198.152344 L 207.960938 198.105469 L 207.914062 198.0625 L 207.78125 197.929688 L 207.78125 197.886719 L 207.738281 197.84375 L 207.695312 197.796875 L 207.652344 197.753906 L 207.605469 197.667969 L 207.5625 197.621094 L 207.429688 197.445312 L 207.476562 197.402344 L 207.476562 197.359375 L 207.386719 197.226562 L 207.34375 197.183594 L 207.34375 197.136719 L 207.300781 197.09375 L 207.253906 197.050781 L 207.210938 197.007812 L 207.167969 196.960938 L 207.121094 196.917969 L 207.078125 196.875 C 206.859375 196.785156 206.726562 196.875 206.15625 196.082031 C 205.847656 195.683594 205.757812 195.421875 205.671875 195.15625 L 205.671875 195.070312 L 205.539062 194.9375 L 205.539062 194.894531 L 205.496094 194.847656 L 205.496094 194.761719 L 205.449219 194.714844 L 205.449219 194.628906 L 205.40625 194.585938 L 205.40625 194.453125 L 205.363281 194.410156 L 205.320312 194.363281 L 205.273438 194.363281 L 205.230469 194.320312 C 205.1875 194.320312 205.144531 194.320312 204.878906 194.054688 L 204.789062 194.011719 L 204.703125 193.925781 L 204.660156 193.925781 L 204.613281 193.878906 L 204.527344 193.835938 L 204 193.308594 L 203.953125 193.21875 L 203.867188 193.132812 L 203.824219 193.085938 L 203.777344 193.042969 L 203.691406 192.957031 L 203.691406 192.78125 L 203.648438 192.734375 L 203.601562 192.691406 L 203.558594 192.648438 L 203.515625 192.601562 L 203.472656 192.558594 L 203.425781 192.515625 L 203.382812 192.472656 L 203.339844 192.425781 L 203.296875 192.382812 L 203.25 192.339844 L 203.207031 192.296875 L 203.164062 192.25 L 203.117188 192.207031 L 203.03125 192.121094 L 202.988281 192.074219 L 202.941406 192.03125 L 202.898438 191.988281 L 202.855469 191.941406 L 202.8125 191.898438 L 202.765625 191.855469 L 202.722656 191.8125 L 202.679688 191.765625 L 202.636719 191.765625 L 202.589844 191.722656 L 202.546875 191.679688 L 202.460938 191.636719 L 202.371094 191.589844 L 202.28125 191.503906 L 202.195312 191.414062 L 202.105469 191.328125 L 202.0625 191.28125 C 201.710938 191.0625 201.359375 190.886719 201.140625 190.796875 C 201.09375 189.875 200.742188 188.332031 200.214844 186.746094 L 200.214844 186.132812 L 200.171875 186.042969 L 200.171875 184.941406 L 200.128906 184.855469 L 200.128906 184.589844 L 200.039062 184.371094 L 200.039062 184.195312 L 199.996094 184.0625 L 199.996094 183.972656 L 199.949219 183.929688 L 199.90625 183.886719 L 199.90625 183.84375 L 199.863281 183.796875 L 199.820312 183.753906 L 199.820312 183.710938 L 199.773438 183.667969 L 199.730469 183.621094 L 199.730469 183.578125 L 199.6875 183.535156 L 199.644531 183.488281 L 199.644531 183.402344 L 199.597656 183.359375 L 199.597656 181.199219 C 199.421875 180.980469 199.292969 180.847656 199.160156 180.714844 C 199.203125 180.320312 199.292969 179.96875 199.335938 179.617188 L 199.335938 176.972656 C 199.730469 175.652344 200.214844 174.859375 200.742188 174.289062 L 200.742188 174.246094 C 200.789062 174.199219 200.832031 174.15625 200.832031 174.113281 L 200.875 174.070312 L 200.917969 174.023438 L 201.007812 173.980469 C 201.492188 173.714844 202.019531 173.539062 202.460938 173.230469 L 202.589844 164.382812 L 202.589844 163.675781 L 203.824219 163.105469 L 204.617188 162.707031 C 204.703125 159.40625 204.175781 158.660156 206.375 158.527344 C 207.609375 158.480469 209.675781 158.613281 213.195312 158.613281 C 217.550781 158.613281 220.765625 158.351562 224.769531 158.835938 L 225.078125 158.835938 C 226.265625 157.910156 227.1875 156.589844 228.90625 156.238281 L 221.554688 139.328125 C 212.492188 139.195312 217.464844 140.871094 207.253906 139.550781 C 203.515625 139.066406 197.136719 137.746094 193.660156 138.007812 L 193.394531 141.53125 C 189.699219 144.171875 190.445312 143.246094 180.855469 139.503906 C 173.109375 136.511719 174.957031 136.378906 170.691406 131.359375 C 168.886719 129.289062 166.289062 130.039062 163.121094 130.128906 C 160.65625 130.171875 156.742188 129.820312 154.539062 130.433594 C 152.605469 131.007812 150.492188 132.902344 148.46875 133.339844 C 145.609375 133.957031 142.089844 133.210938 139.535156 133.78125 C 139.492188 133.871094 139.449219 133.957031 139.402344 134.089844 L 137.820312 137.390625 C 136.234375 136.464844 136.101562 136.554688 135.882812 136.730469 Z M 354.488281 180.097656 L 357.257812 188.726562 L 366.324219 188.726562 L 358.976562 194.054688 L 361.792969 202.640625 L 354.488281 197.3125 L 347.183594 202.640625 L 350 194.054688 L 342.648438 188.726562 L 351.714844 188.726562 Z M 256.316406 240.066406 L 254.867188 240.066406 C 254.6875 241.871094 254.867188 241.5625 251.742188 242.355469 C 245.007812 243.984375 248.527344 249.046875 248.527344 252.085938 C 248.527344 253.230469 245.667969 254.507812 246.328125 259 C 246.8125 262.523438 247.738281 264.722656 249.628906 265.03125 L 250.683594 265.03125 C 251.519531 264.898438 252.535156 264.503906 253.675781 263.796875 C 254.820312 263.136719 254.996094 262.34375 255.4375 261.199219 C 256.230469 259.351562 256.976562 256.488281 257.636719 254.242188 L 260.894531 244.382812 C 261.15625 242.222656 259.707031 241.914062 262.257812 242.445312 C 262.257812 240.640625 261.992188 239.582031 261.597656 237.820312 C 261.113281 235.574219 260.453125 235.179688 260.320312 233.816406 C 257.59375 234.519531 260.015625 234.386719 257.902344 236.765625 C 256.316406 238.394531 256.625 236.71875 256.316406 240.066406 Z M 256.316406 240.066406 " fill-opacity="1" fill-rule="evenodd"/></g></svg>