<svg width="10" height="14" viewBox="0 0 10 14" fill="none" xmlns="http://www.w3.org/2000/svg">
<path d="M5 0.750153C3.67437 0.751641 2.40347 1.2789 1.46611 2.21626C0.528751 3.15362 0.00148882 4.42453 0 5.75015C0 7.78453 1.47688 9.4739 3.04125 11.262C3.53625 11.8283 4.04875 12.4139 4.505 13.0064C4.56339 13.0821 4.63837 13.1435 4.72419 13.1857C4.81001 13.2279 4.90437 13.2498 5 13.2498C5.09563 13.2498 5.18999 13.2279 5.27581 13.1857C5.36163 13.1435 5.43661 13.0821 5.495 13.0064C5.95125 12.4139 6.46375 11.8283 6.95875 11.262C8.52312 9.4739 10 7.78453 10 5.75015C9.99851 4.42453 9.47125 3.15362 8.53389 2.21626C7.59653 1.2789 6.32563 0.751641 5 0.750153ZM5 7.62515C4.62916 7.62515 4.26665 7.51519 3.95831 7.30916C3.64996 7.10313 3.40964 6.8103 3.26773 6.46768C3.12581 6.12507 3.08868 5.74807 3.16103 5.38436C3.23337 5.02064 3.41195 4.68655 3.67417 4.42433C3.9364 4.1621 4.27049 3.98353 4.63421 3.91118C4.99792 3.83883 5.37492 3.87596 5.71753 4.01788C6.06014 4.15979 6.35298 4.40012 6.55901 4.70846C6.76503 5.0168 6.875 5.37931 6.875 5.75015C6.875 6.24743 6.67746 6.72435 6.32583 7.07598C5.97419 7.42761 5.49728 7.62515 5 7.62515Z" fill="#F4BE49"/>
</svg>
