<svg width="11" height="12" viewBox="0 0 11 12" fill="none" xmlns="http://www.w3.org/2000/svg">
<path d="M5.41667 2.75001C5.34553 2.74999 5.27509 2.76399 5.20936 2.7912C5.14363 2.81842 5.08391 2.85832 5.03361 2.90862C4.98331 2.95892 4.94341 3.01864 4.9162 3.08437C4.88898 3.15009 4.87498 3.22054 4.875 3.29168V5.66623L3.55839 6.32876C3.49487 6.36072 3.43826 6.40487 3.3918 6.4587C3.34533 6.51254 3.30993 6.57499 3.2876 6.64251C3.26528 6.71002 3.25647 6.78127 3.26168 6.85219C3.26689 6.92311 3.28602 6.99231 3.31797 7.05584C3.34993 7.11936 3.39408 7.17597 3.44791 7.22243C3.50174 7.2689 3.5642 7.3043 3.63172 7.32663C3.69923 7.34895 3.77048 7.35776 3.8414 7.35255C3.91232 7.34734 3.98152 7.32821 4.04504 7.29626L5.66 6.48376C5.74971 6.43874 5.82512 6.36965 5.87781 6.28422C5.9305 6.19879 5.95838 6.10038 5.95834 6.00001V3.29168C5.95835 3.22054 5.94436 3.15009 5.91714 3.08437C5.88993 3.01864 5.85003 2.95892 5.79973 2.90862C5.74942 2.85832 5.6897 2.81842 5.62398 2.7912C5.55825 2.76399 5.48781 2.74999 5.41667 2.75001ZM5.41667 0.583344C4.34535 0.583344 3.2981 0.901026 2.40733 1.49622C1.51656 2.09141 0.822296 2.93738 0.412322 3.92714C0.00234696 4.91691 -0.104921 6.00602 0.104082 7.05675C0.313085 8.10748 0.828973 9.07264 1.58651 9.83017C2.34404 10.5877 3.3092 11.1036 4.35993 11.3126C5.41066 11.5216 6.49977 11.4143 7.48954 11.0044C8.4793 10.5944 9.32527 9.90012 9.92046 9.00935C10.5157 8.11858 10.8333 7.07133 10.8333 6.00001C10.8317 4.56393 10.2605 3.18713 9.24502 2.17166C8.22955 1.1562 6.85275 0.584986 5.41667 0.583344ZM5.41667 10.3333C4.55962 10.3333 3.72181 10.0792 3.0092 9.60305C2.29659 9.12689 1.74117 8.45012 1.41319 7.65831C1.08521 6.86649 0.999397 5.9952 1.1666 5.15462C1.3338 4.31403 1.74651 3.54191 2.35254 2.93588C2.95857 2.32985 3.73069 1.91714 4.57128 1.74994C5.41186 1.58274 6.28315 1.66855 7.07496 1.99653C7.86678 2.32451 8.54355 2.87993 9.0197 3.59254C9.49586 4.30515 9.75 5.14296 9.75 6.00001C9.74869 7.14888 9.29172 8.25031 8.47935 9.06269C7.66697 9.87506 6.56554 10.332 5.41667 10.3333Z" fill="#00833F"/>
</svg>
